<?xml version="1.0" encoding="UTF-8"?>
<svg id="Layer_1" data-name="Layer 1" xmlns="http://www.w3.org/2000/svg" viewBox="0 0 64.95 67.5">
  <defs>
    <style>
      .cls-1 {
        fill: #fff;
      }

      .cls-2 {
        fill: #e30613;
      }

      .cls-3 {
        fill: #1d1d1b;
      }
    </style>
  </defs>
  <circle class="cls-2" cx="32.47" cy="33.75" r="26.39" transform="translate(-14.35 32.85) rotate(-45)"/>
  <polygon class="cls-1" points="32.47 13.24 17.97 19.24 11.96 33.75 17.97 48.26 32.47 54.26 46.98 48.26 52.99 33.75 46.98 19.24 32.47 13.24"/>
  <g>
    <g>
      <path class="cls-3" d="M22.47,19.97l8.01,3.21v5.03s-7.34,3.68-7.34,3.68c-2.35-2.71-2.71-8.23-.66-11.93Z"/>
      <path class="cls-3" d="M42.49,19.98l-7.95,3.2v5.03s7.27,3.69,7.27,3.69c2.35-2.71,2.71-8.23,.67-11.93Z"/>
      <polygon class="cls-3" points="32.31 20.6 30.87 22.29 30.83 41.43 30.39 41.42 26.78 41.42 26.78 46.99 26.03 46.99 27.68 49.18 29.35 46.99 28.59 46.99 28.59 43.23 31.56 43.24 31.55 49.2 30.78 49.2 32.45 51.53 34.12 49.2 33.36 49.2 33.36 43.24 36.37 43.24 36.37 47 35.55 47 37.27 49.21 38.94 47.01 38.17 47 38.18 41.43 34.4 41.43 34.13 41.43 34.16 22.29 32.66 20.6 32.63 41.43 32.29 41.43 32.31 20.6"/>
    </g>
    <g>
      <path class="cls-3" d="M22.46,19.98l8.01,3.2v5.03l-7.33,3.69c-2.35-2.71-2.72-8.22-.68-11.93Z"/>
      <path class="cls-3" d="M42.48,19.97l-7.94,3.21v5.03s7.28,3.68,7.28,3.68c2.35-2.72,2.7-8.23,.66-11.93Z"/>
      <polygon class="cls-3" points="32.31 20.59 30.86 22.29 30.85 41.43 30.41 41.43 26.8 41.43 26.8 47 26.06 47 27.71 49.18 29.38 47 28.61 47 28.61 43.24 31.58 43.24 31.58 49.2 30.81 49.2 32.48 51.53 34.15 49.2 33.39 49.2 33.39 43.24 36.39 43.24 36.39 47 35.58 47 37.3 49.2 38.97 47 38.2 47 38.2 41.43 34.42 41.43 34.15 41.43 34.16 22.29 32.65 20.59 32.65 41.43 32.31 41.43 32.31 20.59"/>
    </g>
  </g>
</svg>