<?xml version="1.0" encoding="UTF-8"?>
<svg id="Layer_10" data-name="Layer 10" xmlns="http://www.w3.org/2000/svg" viewBox="0 0 70.63 67.37">
  <defs>
    <style>
      .cls-1 {
        fill: #fff;
      }

      .cls-2 {
        stroke: #fff;
        stroke-miterlimit: 10;
        stroke-width: 1.5px;
      }
    </style>
  </defs>
  <circle class="cls-2" cx="35.32" cy="33.68" r="24.27"/>
  <circle class="cls-1" cx="35.32" cy="30.25" r="18.42"/>
  <path d="M35.39,30.52c0,.05,0,.11,0,.16,0,.19-.04,.37,.21,.46,.15,.06,.2,.23,.2,.4,0,.19,0,.37,0,.56-.01,.23-.12,.39-.34,.47-.07,.03-.1,.06-.1,.14,0,.09,0,.18,0,.27-.02,.18-.02,.34,.2,.43,.15,.06,.21,.23,.21,.4,0,.19,0,.38,0,.58,0,.23-.12,.39-.34,.47-.08,.03-.09,.07-.09,.14,0,.16,0,.33,0,.49,0,.07,.02,.1,.09,.13,.23,.09,.33,.27,.33,.51,0,.17,0,.34,0,.52,0,.24-.12,.41-.35,.5-.07,.02-.09,.06-.09,.13,0,.17,0,.34,0,.5,0,.07,.03,.1,.09,.13,.23,.09,.33,.27,.33,.51,0,.17,0,.34,0,.52,0,.24-.12,.41-.35,.49-.07,.02-.09,.06-.09,.13,0,.09,0,.19,0,.28-.01,.18-.02,.33,.2,.42,.16,.06,.22,.25,.22,.42,0,.17,0,.34,0,.52,0,.25-.11,.43-.35,.51-.07,.02-.09,.06-.09,.13,0,.18,0,.36-.01,.55h-.18c0-.18,0-.37,.01-.55,0-.07-.01-.11-.08-.13-.23-.09-.34-.27-.33-.52,0-.17,0-.34,0-.52,0-.22,.11-.39,.32-.47,.09-.03,.12-.08,.11-.17,0-.08,0-.17,0-.25,.02-.18,.02-.33-.2-.42-.15-.06-.21-.23-.21-.4,0-.19,0-.38,0-.58,0-.22,.11-.38,.31-.46,.1-.04,.12-.09,.12-.18,0-.15,0-.31,0-.46,0-.07-.01-.1-.08-.13-.23-.09-.33-.26-.33-.51,0-.17,0-.34,0-.52,0-.24,.11-.41,.33-.49,.08-.03,.1-.06,.1-.14,0-.09,0-.18,0-.27,0-.18,.04-.35-.2-.43-.15-.05-.21-.23-.21-.4,0-.19,0-.37,0-.56,0-.23,.12-.39,.33-.48,.08-.03,.1-.07,.1-.15,0-.08,0-.16,0-.24,.01-.19,.03-.36-.21-.46-.14-.06-.2-.22-.2-.39,0-.19,0-.37,0-.56,0-.24,.12-.4,.34-.49,.07-.03,.09-.06,.09-.13,0-.14,0-.28,0-.41h.18Zm.12,8.13c0-.1,0-.2,0-.29,0-.1-.05-.18-.12-.24-.04-.03-.1-.1-.11,.03,0,.05-.04,.07-.08,.07-.04,0-.08-.03-.09-.07-.02-.15-.09-.06-.13-.02-.08,.06-.11,.15-.12,.24,0,.18,0,.36,0,.55,0,.11,.04,.21,.14,.28,.04,.03,.09,.06,.09-.03,0-.05,.04-.08,.09-.08,.04,0,.08,.03,.08,.07,0,.12,.07,.07,.11,.03,.08-.06,.13-.14,.13-.24,0-.1,0-.2,0-.29Zm-.13-6.24c.15-.06,.22-.16,.22-.3,0-.19,0-.38,0-.57,0-.12-.06-.22-.16-.28-.02-.01-.06-.04-.06,.01,0,.07-.02,.12-.1,.11-.09,0-.06-.1-.1-.15-.14,.06-.21,.16-.22,.31,0,.18,0,.36,0,.55,0,.12,.05,.22,.15,.29,.02,.01,.06,.06,.08,0,.01-.07,.04-.12,.11-.11,.08,.01,.07,.09,.08,.15Zm-.34,9.1c.02-.07,.03-.14,.11-.15,.04,0,.08,.02,.08,.05,.02,.18,.1,.06,.15,.03,.06-.05,.1-.11,.1-.19,0-.21,.01-.42,0-.64,0-.1-.06-.18-.14-.23-.04-.03-.08-.05-.09,.03,0,.05-.04,.09-.08,.09-.05,0-.09-.03-.09-.08,0-.11-.07-.05-.11-.03-.09,.07-.13,.17-.14,.28,0,.17,0,.34,0,.5,0,.15,.06,.27,.21,.34Zm.08-5.72c-.14,.06-.22,.17-.22,.32,0,.18,0,.35,0,.53,0,.12,.04,.21,.14,.28,.04,.03,.09,.06,.1-.03,0-.05,.05-.08,.09-.08,.03,0,.07,.02,.08,.06,.02,.16,.09,.07,.14,.03,.07-.05,.1-.13,.1-.22,0-.2,0-.39,0-.59,0-.12-.06-.2-.16-.27-.02-.02-.06-.04-.07,0-.01,.06-.02,.12-.1,.11-.08,0-.07-.09-.1-.15Zm.25-2.27c-.03,.06-.01,.15-.1,.15-.09,0-.09-.09-.11-.15-.14,.06-.22,.16-.22,.31,0,.18-.01,.36,0,.55,0,.15,.07,.26,.22,.31,.01-.07,.02-.13,.09-.15,.04,0,.08,.01,.08,.04,.04,.18,.11,.06,.17,.01,.06-.05,.08-.13,.08-.21,0-.18,0-.36,0-.55,0-.15-.07-.25-.21-.32Z"/>
  <path d="M33.66,30.15s-.07,.08-.1,.11c-.13,.12-.26,.22-.15,.44,.07,.14-.02,.29-.12,.4-.12,.13-.24,.25-.37,.37-.15,.15-.33,.19-.53,.1-.07-.03-.11-.02-.15,.03-.05,.06-.11,.12-.17,.18-.13,.11-.23,.21-.14,.42,.06,.14-.01,.29-.12,.4-.12,.13-.25,.26-.38,.38-.15,.15-.34,.18-.53,.1-.07-.03-.11-.01-.15,.03-.1,.11-.21,.22-.32,.32-.05,.04-.06,.08-.03,.14,.1,.21,.05,.39-.1,.55-.11,.12-.22,.23-.34,.34-.16,.16-.34,.2-.55,.11-.06-.03-.1-.02-.14,.03-.11,.11-.21,.22-.33,.33-.05,.05-.05,.09-.02,.14,.1,.21,.05,.39-.1,.55-.11,.12-.22,.23-.34,.34-.16,.16-.34,.2-.55,.11-.06-.03-.1-.02-.14,.03-.06,.06-.12,.13-.18,.19-.12,.11-.22,.21-.13,.41,.07,.15-.01,.3-.13,.42-.11,.11-.22,.23-.34,.34-.16,.16-.35,.21-.56,.12-.06-.03-.1-.01-.14,.03-.12,.12-.24,.24-.36,.36l-.12-.12c.12-.12,.24-.24,.36-.36,.04-.04,.06-.08,.03-.14-.1-.21-.05-.4,.11-.56,.11-.11,.22-.23,.34-.34,.15-.15,.32-.19,.51-.11,.08,.04,.13,.02,.18-.04,.05-.06,.1-.12,.16-.17,.13-.11,.22-.21,.13-.41-.06-.14,0-.29,.12-.4,.12-.13,.25-.25,.38-.38,.14-.15,.32-.18,.5-.11,.09,.04,.14,.01,.2-.05,.1-.1,.2-.2,.3-.3,.04-.04,.06-.08,.03-.14-.1-.21-.06-.39,.11-.55,.11-.11,.23-.23,.34-.34,.15-.16,.33-.2,.54-.11,.07,.03,.11,.02,.15-.03,.05-.06,.11-.12,.17-.18,.12-.11,.25-.2,.14-.42-.07-.13,0-.29,.12-.4,.12-.12,.24-.25,.37-.37,.15-.16,.33-.19,.53-.11,.08,.03,.12,.02,.16-.04,.05-.06,.1-.11,.15-.16,.13-.12,.26-.22,.15-.44-.06-.13,0-.28,.12-.39,.12-.12,.24-.25,.37-.37,.15-.16,.34-.19,.54-.11,.06,.03,.1,.02,.14-.03,.09-.09,.18-.18,.27-.28l.12,.12Zm-5.13,5.52c.06-.06,.13-.13,.19-.19,.07-.07,.09-.15,.07-.24,0-.05,0-.13-.09-.06-.03,.03-.07,.02-.1,0-.03-.03-.04-.07-.02-.1,.08-.11-.02-.1-.07-.1-.09,0-.17,.02-.23,.09-.12,.12-.24,.24-.35,.36-.07,.08-.11,.17-.08,.27,0,.05,.02,.1,.08,.04,.03-.03,.08-.02,.11,0,.03,.03,.03,.07,0,.1-.07,.08,0,.09,.06,.09,.09,0,.17,0,.24-.08,.06-.07,.13-.13,.19-.19Zm3.92-4.26c.14,.06,.25,.04,.34-.05,.13-.12,.25-.25,.37-.38,.08-.08,.1-.18,.07-.29,0-.02-.01-.06-.05-.03-.05,.04-.09,.06-.14,0-.05-.06,.02-.1,.03-.16-.13-.05-.25-.03-.34,.07-.12,.12-.24,.24-.36,.36-.08,.08-.11,.18-.08,.29,0,.02,0,.08,.06,.04,.05-.04,.1-.05,.14,0,.04,.06-.01,.1-.04,.15Zm-6.06,5.87c.06-.03,.11-.08,.17-.03,.03,.02,.04,.06,.02,.09-.1,.13,.02,.11,.08,.11,.07,0,.14-.01,.19-.07,.14-.14,.28-.28,.41-.42,.06-.07,.07-.16,.05-.24,0-.04-.02-.09-.08-.04-.04,.03-.08,.03-.11,0-.03-.03-.04-.08,0-.11,.07-.08-.01-.08-.05-.09-.11-.02-.2,.02-.27,.1-.11,.11-.22,.22-.33,.33-.1,.1-.13,.21-.08,.36Zm3.72-3.78c-.14-.05-.25-.03-.35,.07-.12,.12-.23,.23-.35,.35-.08,.08-.11,.17-.09,.27,0,.05,.02,.1,.08,.04,.04-.03,.08-.02,.11,0,.02,.02,.03,.06,.01,.09-.09,.12,.02,.1,.08,.11,.08,0,.15-.02,.21-.08,.13-.13,.26-.26,.38-.39,.08-.08,.09-.17,.07-.28,0-.03-.02-.06-.05-.04-.05,.03-.09,.07-.14,.01-.05-.06,.01-.11,.03-.17Zm1.63-1.36c-.06,.02-.1,.09-.16,.03-.06-.06,0-.11,.03-.17-.14-.05-.25-.03-.35,.06-.12,.12-.24,.24-.36,.36-.09,.1-.12,.22-.05,.35,.05-.04,.1-.08,.15-.04,.03,.02,.04,.06,.03,.08-.09,.15,.04,.11,.1,.12,.08,0,.14-.03,.19-.09,.12-.12,.24-.24,.36-.36,.1-.1,.12-.21,.06-.35Z"/>
  <path d="M37.24,29.65s.07,.07,.11,.11c.12,.14,.21,.28,.45,.18,.14-.06,.3,.03,.41,.15,.12,.13,.25,.26,.36,.4,.14,.17,.18,.36,.07,.55-.03,.07-.03,.11,.02,.16,.06,.06,.12,.12,.17,.19,.11,.14,.21,.25,.43,.17,.15-.06,.3,.03,.41,.14,.13,.13,.25,.27,.37,.41,.14,.17,.17,.36,.07,.56-.04,.07-.02,.11,.03,.16,.11,.11,.21,.23,.32,.35,.04,.05,.08,.06,.15,.04,.22-.09,.41-.03,.57,.14,.11,.12,.23,.24,.34,.37,.15,.17,.19,.37,.08,.58-.03,.06-.02,.1,.02,.15,.11,.12,.22,.24,.33,.36,.05,.05,.09,.06,.15,.03,.22-.09,.41-.03,.57,.14,.11,.12,.23,.24,.34,.37,.15,.17,.19,.37,.08,.58-.03,.06-.02,.1,.02,.15,.06,.06,.13,.13,.18,.2,.11,.13,.2,.25,.41,.16,.16-.06,.31,.03,.43,.16,.11,.12,.22,.25,.34,.37,.16,.18,.2,.37,.09,.59-.03,.06-.02,.1,.02,.15,.12,.13,.24,.26,.35,.39l-.13,.12c-.12-.13-.24-.26-.35-.39-.04-.05-.08-.07-.14-.04-.23,.09-.42,.03-.57-.15-.11-.13-.22-.25-.34-.37-.15-.16-.18-.34-.09-.54,.04-.09,.03-.14-.03-.19-.06-.05-.11-.12-.16-.18-.11-.14-.21-.24-.42-.16-.15,.06-.3-.02-.41-.14-.13-.14-.25-.27-.37-.41-.14-.16-.17-.34-.08-.53,.05-.09,.02-.14-.04-.21-.1-.11-.2-.22-.3-.33-.04-.05-.08-.06-.14-.04-.22,.09-.41,.04-.56-.14-.11-.12-.22-.25-.34-.37-.16-.17-.19-.36-.09-.56,.03-.07,.03-.11-.02-.16-.06-.06-.12-.13-.17-.19-.11-.13-.2-.27-.43-.17-.14,.06-.3-.02-.41-.14-.12-.13-.24-.27-.36-.4-.15-.17-.18-.35-.08-.55,.04-.08,.03-.12-.03-.17-.05-.05-.11-.11-.15-.17-.12-.14-.21-.28-.45-.18-.14,.05-.29-.02-.39-.14-.12-.13-.24-.27-.36-.4-.16-.17-.18-.36-.08-.57,.03-.06,.03-.1-.02-.15-.09-.1-.18-.19-.27-.29l.13-.12Zm5.44,5.64c-.06-.07-.13-.14-.19-.21-.07-.07-.15-.1-.24-.09-.05,0-.14,0-.06,.09,.03,.04,.02,.07,0,.1-.03,.03-.08,.03-.11,.01-.11-.09-.1,.02-.11,.07-.01,.09,.02,.18,.08,.25,.12,.13,.23,.26,.35,.39,.08,.08,.17,.12,.28,.1,.05,0,.1-.01,.05-.08-.03-.04-.02-.09,.01-.12,.03-.03,.07-.03,.1,0,.08,.08,.09,0,.1-.05,.02-.09,0-.18-.07-.25-.06-.07-.13-.14-.19-.21Zm-4.21-4.31c.07-.14,.05-.25-.04-.36-.12-.14-.25-.28-.37-.41-.08-.09-.18-.12-.3-.09-.02,0-.07,.01-.04,.05,.04,.05,.06,.1,0,.15-.07,.05-.11-.03-.17-.04-.06,.13-.04,.25,.05,.36,.12,.13,.23,.26,.35,.39,.08,.09,.18,.12,.3,.1,.02,0,.08,0,.05-.06-.04-.05-.05-.11,0-.15,.06-.04,.1,.02,.16,.05Zm5.75,6.63c-.03-.06-.07-.12-.02-.18,.02-.03,.07-.04,.09-.01,.13,.11,.11-.02,.12-.08,.01-.07,0-.14-.06-.2-.14-.15-.27-.31-.41-.45-.07-.07-.16-.08-.25-.07-.05,0-.09,.02-.04,.08,.03,.04,.03,.08,0,.12-.03,.03-.08,.03-.12,0-.08-.07-.08,0-.09,.05-.02,.11,.01,.21,.09,.29,.11,.12,.22,.24,.33,.36,.1,.11,.22,.15,.37,.1Zm-3.71-4.08c-.06,.14-.04,.26,.06,.37,.11,.13,.23,.25,.34,.38,.08,.08,.17,.12,.28,.11,.05,0,.1-.01,.05-.08-.03-.04-.02-.09,.01-.12,.02-.02,.06-.03,.09,0,.12,.1,.11-.01,.12-.07,.01-.08-.01-.16-.07-.22-.13-.14-.25-.28-.38-.42-.08-.08-.18-.11-.29-.08-.03,0-.07,.01-.04,.05,.03,.05,.06,.1,0,.15-.06,.05-.11-.02-.17-.04Zm-1.32-1.77c.02,.06,.09,.11,.03,.17-.07,.06-.12,0-.18-.04-.06,.14-.05,.26,.05,.37,.12,.13,.23,.26,.35,.39,.1,.1,.22,.14,.36,.08-.03-.06-.07-.1-.03-.16,.02-.03,.06-.04,.09-.03,.15,.1,.12-.03,.13-.1,0-.08-.03-.15-.08-.21-.12-.13-.24-.26-.35-.39-.1-.11-.21-.13-.36-.08Z"/>
  <path d="M34.2,26.73s-.04-.08-.06-.12c-.06-.14-.09-.29-.31-.27-.13,0-.23-.11-.28-.23-.06-.14-.12-.28-.18-.42-.07-.17-.04-.33,.09-.46,.05-.04,.05-.08,.03-.13-.03-.06-.06-.13-.09-.2-.05-.14-.1-.26-.3-.25-.13,0-.23-.1-.29-.23-.07-.14-.13-.29-.19-.43-.07-.17-.04-.33,.1-.46,.05-.05,.05-.08,.02-.13-.05-.12-.11-.24-.16-.36-.02-.05-.05-.07-.11-.07-.2,.01-.34-.09-.42-.26-.06-.13-.11-.26-.17-.39-.08-.18-.05-.35,.09-.48,.04-.04,.05-.07,.02-.12-.06-.12-.11-.25-.16-.38-.02-.06-.05-.07-.11-.07-.2,0-.33-.09-.41-.27-.06-.13-.11-.26-.17-.39-.07-.18-.05-.35,.1-.48,.04-.04,.04-.08,.02-.12-.03-.07-.06-.14-.09-.21-.05-.14-.09-.25-.29-.24-.14,0-.24-.11-.3-.24-.06-.13-.11-.26-.17-.39-.08-.18-.06-.35,.09-.49,.04-.04,.04-.07,.02-.12-.06-.14-.12-.27-.17-.41l.13-.06c.06,.14,.12,.27,.17,.41,.02,.05,.04,.07,.1,.07,.2,0,.34,.09,.42,.28,.05,.13,.11,.26,.17,.39,.07,.17,.05,.32-.08,.45-.06,.06-.06,.1-.03,.16,.03,.06,.06,.12,.08,.19,.05,.14,.1,.25,.29,.24,.13,0,.23,.1,.29,.23,.06,.14,.12,.29,.19,.43,.07,.17,.04,.32-.08,.44-.06,.06-.06,.11-.03,.18,.05,.11,.1,.23,.15,.34,.02,.05,.04,.07,.1,.07,.2,0,.34,.08,.41,.27,.05,.13,.11,.26,.17,.39,.08,.18,.05,.34-.08,.47-.05,.05-.05,.08-.02,.13,.03,.06,.06,.13,.09,.2,.05,.13,.08,.27,.29,.25,.13-.01,.23,.1,.28,.23,.06,.14,.12,.28,.18,.42,.08,.17,.04,.33-.08,.46-.05,.05-.05,.09-.02,.15,.03,.06,.05,.12,.08,.18,.05,.14,.1,.28,.31,.27,.12,0,.22,.1,.28,.22,.06,.14,.12,.28,.18,.42,.08,.18,.05,.34-.09,.47-.04,.04-.05,.07-.03,.12,.05,.1,.09,.2,.14,.31l-.13,.06Zm-2.8-5.99c.03,.07,.06,.15,.09,.22,.03,.08,.09,.12,.17,.14,.04,.01,.11,.04,.08-.06-.01-.04,0-.06,.04-.08,.03-.02,.07,0,.09,.02,.06,.1,.08,.01,.1-.03,.04-.07,.04-.15,0-.22-.06-.14-.12-.27-.18-.41-.04-.08-.1-.14-.2-.16-.04,0-.08-.02-.06,.06,.01,.04,0,.07-.04,.09-.03,.01-.07,0-.08-.03-.05-.09-.07-.03-.09,.01-.04,.07-.05,.14-.02,.22,.03,.07,.06,.15,.09,.22Zm2.18,4.59c-.09,.09-.11,.19-.07,.29,.06,.14,.12,.29,.19,.43,.04,.09,.11,.14,.21,.15,.02,0,.06,0,.04-.03-.02-.05-.02-.1,.04-.12,.07-.02,.08,.05,.12,.08,.08-.09,.1-.19,.06-.3-.06-.14-.12-.27-.18-.41-.04-.09-.11-.14-.21-.16-.02,0-.07-.02-.05,.03,.01,.05,.01,.1-.05,.12-.06,.02-.08-.04-.11-.08Zm-2.78-6.86c0,.06,.03,.11-.03,.15-.03,.02-.06,0-.08-.01-.07-.12-.09-.01-.12,.03-.03,.05-.03,.12,0,.17,.07,.16,.13,.32,.21,.47,.03,.07,.1,.11,.18,.13,.04,0,.08,.01,.06-.05-.01-.04,0-.08,.03-.09,.03-.02,.08,0,.1,.03,.05,.08,.07,.02,.09-.01,.05-.08,.04-.17,0-.25-.05-.13-.11-.25-.16-.38-.05-.11-.13-.18-.27-.18Zm1.85,4.27c.09-.09,.1-.2,.06-.31-.06-.13-.11-.26-.17-.4-.04-.09-.1-.14-.19-.16-.04,0-.09-.02-.06,.05,.01,.04,0,.07-.04,.09-.02,.01-.06,0-.08-.02-.07-.11-.09-.02-.11,.03-.03,.06-.03,.13,0,.2,.06,.15,.13,.29,.19,.44,.04,.09,.11,.13,.2,.15,.02,0,.06,0,.05-.03-.01-.05-.02-.1,.04-.12,.07-.02,.08,.04,.13,.08Zm.57,1.77c0-.06-.04-.11,.03-.14,.07-.03,.09,.04,.13,.08,.09-.09,.11-.19,.06-.3-.06-.14-.11-.27-.18-.41-.05-.11-.14-.17-.27-.16,.01,.05,.03,.1-.02,.14-.03,.02-.06,.02-.08,0-.09-.12-.1,0-.13,.05-.03,.06-.02,.12,0,.19,.06,.14,.12,.27,.18,.41,.05,.11,.13,.16,.26,.17Z"/>
  <path d="M36.53,26.79s.03-.08,.04-.12c.06-.14,.13-.27-.04-.41-.1-.08-.09-.23-.05-.36,.05-.14,.1-.29,.16-.43,.07-.17,.2-.27,.39-.27,.06,0,.09-.02,.11-.08,.02-.07,.04-.14,.07-.2,.06-.14,.11-.26-.04-.38-.1-.09-.1-.23-.05-.36,.05-.15,.1-.29,.16-.44,.07-.17,.2-.27,.39-.27,.07,0,.09-.03,.11-.08,.04-.12,.09-.25,.14-.37,.02-.05,.01-.08-.03-.12-.15-.13-.18-.29-.12-.48,.05-.13,.1-.26,.15-.39,.07-.18,.2-.28,.4-.29,.06,0,.08-.02,.1-.07,.04-.13,.09-.26,.14-.38,.02-.05,0-.09-.03-.12-.15-.13-.18-.29-.12-.48,.05-.13,.1-.26,.15-.39,.07-.18,.2-.28,.4-.28,.06,0,.08-.02,.1-.08,.02-.07,.05-.14,.08-.21,.06-.13,.11-.25-.04-.37-.11-.09-.1-.25-.05-.38,.05-.13,.1-.26,.15-.39,.07-.19,.2-.3,.41-.29,.06,0,.08-.02,.1-.08,.05-.14,.1-.28,.16-.41l.13,.05c-.05,.14-.1,.28-.16,.41-.02,.05-.02,.08,.03,.12,.15,.13,.19,.3,.11,.49-.05,.13-.1,.26-.15,.39-.06,.17-.19,.27-.37,.27-.08,0-.11,.03-.13,.1-.02,.07-.04,.13-.07,.19-.06,.13-.1,.25,.04,.37,.1,.09,.1,.23,.05,.36-.05,.15-.11,.29-.16,.44-.06,.17-.19,.26-.36,.27-.09,0-.12,.04-.14,.11-.04,.12-.08,.23-.13,.35-.02,.05-.02,.08,.03,.12,.15,.13,.18,.29,.11,.48-.05,.13-.1,.26-.15,.39-.07,.18-.19,.28-.39,.28-.07,0-.09,.02-.11,.08-.02,.07-.05,.14-.07,.2-.05,.13-.13,.25,.04,.38,.1,.08,.1,.23,.05,.36-.05,.14-.11,.28-.16,.43-.06,.18-.2,.27-.38,.28-.07,0-.1,.03-.12,.09-.02,.06-.04,.12-.07,.18-.06,.14-.12,.27,.04,.41,.09,.08,.09,.22,.05,.35-.05,.14-.11,.28-.16,.43-.07,.18-.2,.28-.39,.28-.06,0-.09,.02-.1,.07-.04,.11-.08,.21-.11,.32l-.13-.05Zm2.11-6.24c-.03,.07-.06,.15-.08,.22-.03,.08-.01,.15,.03,.22,.02,.04,.05,.1,.09,.01,.02-.03,.05-.04,.08-.03,.03,.01,.06,.04,.05,.07-.02,.12,.05,.07,.09,.05,.07-.03,.13-.08,.16-.16,.05-.14,.1-.28,.15-.41,.03-.09,.02-.17-.03-.25-.03-.04-.05-.07-.08,0-.02,.04-.06,.05-.09,.04-.03-.01-.05-.04-.04-.08,.03-.09-.03-.07-.08-.05-.07,.02-.13,.07-.16,.15-.03,.07-.06,.15-.08,.22Zm-1.59,4.81c-.13,0-.21,.06-.25,.17-.06,.14-.11,.29-.16,.44-.03,.09-.02,.18,.05,.26,.01,.02,.03,.05,.05,0,.02-.05,.05-.08,.11-.06,.06,.03,.02,.09,.03,.14,.12,0,.21-.07,.25-.18,.05-.14,.1-.28,.15-.41,.03-.09,.02-.18-.04-.26-.01-.01-.03-.06-.06-.01-.03,.05-.06,.08-.11,.05-.05-.03-.03-.08-.02-.14Zm2.72-6.86s-.06,.1-.12,.08c-.03,0-.05-.04-.05-.06,.03-.14-.06-.07-.11-.06-.06,.02-.1,.06-.13,.12-.06,.16-.12,.32-.18,.48-.03,.08,0,.15,.04,.21,.02,.03,.05,.06,.08,0,.02-.04,.05-.06,.09-.04,.04,.01,.06,.05,.05,.09-.02,.09,.04,.06,.07,.05,.09-.03,.15-.09,.18-.18,.05-.13,.09-.26,.14-.38,.04-.12,.03-.22-.07-.32Zm-1.61,4.35c.13,0,.21-.07,.25-.18,.05-.13,.1-.27,.15-.4,.03-.09,.02-.17-.03-.25-.02-.03-.05-.07-.08,0-.02,.04-.06,.05-.09,.04-.03,0-.05-.04-.04-.07,.03-.13-.05-.08-.1-.06-.07,.02-.11,.07-.14,.14-.05,.15-.11,.3-.17,.45-.03,.09-.01,.17,.05,.25,.01,.02,.04,.04,.05,.01,.03-.04,.05-.09,.11-.06,.06,.03,.03,.09,.04,.14Zm-.81,1.67s.05-.11,.12-.09c.07,.03,.04,.09,.04,.15,.13,0,.21-.07,.25-.18,.05-.14,.11-.28,.15-.42,.04-.11,.02-.22-.08-.3-.03,.05-.05,.1-.11,.09-.03,0-.06-.03-.05-.06,.02-.15-.07-.08-.12-.06-.06,.02-.1,.08-.12,.14-.05,.14-.1,.28-.15,.42-.04,.11-.02,.21,.08,.3Z"/>
  <path d="M37.61,28.28s.09-.02,.14-.02c.16-.02,.31-.02,.35-.24,.02-.14,.17-.2,.31-.23,.16-.03,.31-.05,.47-.07,.19-.02,.35,.04,.44,.22,.03,.06,.07,.08,.13,.06,.07-.02,.15-.03,.22-.03,.16-.01,.29-.03,.33-.23,.03-.14,.16-.21,.3-.23,.16-.03,.32-.05,.48-.07,.19-.02,.35,.05,.44,.22,.03,.06,.07,.07,.13,.06,.14-.02,.27-.05,.41-.06,.06,0,.09-.03,.1-.09,.04-.2,.18-.32,.38-.35,.14-.02,.29-.05,.43-.07,.2-.03,.36,.04,.47,.22,.03,.05,.06,.07,.12,.06,.14-.02,.28-.05,.42-.06,.06,0,.08-.04,.09-.09,.04-.2,.18-.32,.38-.35,.14-.02,.29-.05,.43-.07,.2-.03,.36,.04,.46,.22,.03,.05,.06,.07,.12,.05,.08-.02,.16-.03,.24-.04,.15-.01,.28-.03,.32-.23,.03-.14,.18-.22,.33-.24,.14-.02,.29-.05,.43-.07,.21-.03,.37,.03,.48,.22,.03,.05,.06,.06,.12,.05,.15-.03,.31-.05,.46-.07l.02,.15c-.15,.02-.31,.05-.46,.07-.06,0-.09,.03-.1,.09-.04,.21-.18,.32-.39,.35-.15,.02-.29,.04-.43,.07-.19,.03-.34-.03-.44-.2-.04-.07-.09-.09-.16-.07-.07,.02-.14,.03-.21,.03-.15,.01-.28,.03-.32,.23-.03,.14-.16,.21-.3,.23-.16,.03-.32,.05-.48,.08-.19,.03-.33-.04-.43-.2-.05-.08-.09-.09-.17-.07-.13,.02-.26,.04-.38,.06-.06,0-.08,.03-.1,.09-.04,.2-.17,.32-.38,.35-.15,.02-.29,.04-.43,.07-.2,.03-.36-.04-.46-.21-.03-.06-.07-.07-.13-.06-.07,.02-.15,.02-.22,.04-.15,.02-.3,.01-.33,.23-.02,.13-.16,.21-.3,.23-.16,.02-.31,.05-.47,.07-.2,.03-.35-.04-.45-.21-.04-.06-.07-.08-.14-.06-.07,.01-.13,.02-.2,.03-.16,.02-.31,.02-.35,.24-.03,.13-.16,.2-.3,.22-.16,.02-.31,.05-.47,.07-.2,.03-.35-.04-.46-.21-.03-.05-.06-.07-.12-.06-.12,.02-.23,.04-.35,.06l-.02-.15Zm6.79-1.26c-.08,.01-.17,.03-.25,.04-.09,.01-.14,.06-.18,.14-.02,.04-.07,.1,.04,.09,.04,0,.06,.02,.07,.06,0,.04-.01,.07-.04,.08-.12,.04-.04,.08,0,.11,.06,.05,.14,.08,.22,.06,.15-.02,.31-.05,.46-.07,.1-.02,.17-.07,.21-.16,.02-.04,.04-.08-.04-.07-.04,0-.07-.03-.08-.07,0-.03,.01-.07,.05-.08,.1-.02,.05-.07,.01-.1-.06-.06-.13-.09-.22-.07-.08,.01-.17,.03-.25,.04Zm-5.21,.99c-.07-.12-.16-.16-.28-.15-.16,.02-.32,.05-.48,.07-.1,.02-.17,.08-.21,.18,0,.02-.02,.05,.02,.05,.06,0,.1,0,.11,.07,0,.07-.07,.07-.11,.1,.07,.11,.17,.15,.29,.14,.15-.02,.31-.05,.46-.07,.1-.02,.18-.07,.22-.17,0-.02,.04-.06-.02-.06-.06,0-.1-.01-.1-.08,0-.06,.06-.07,.11-.09Zm7.67-1c-.06-.01-.12,0-.14-.07,0-.03,0-.07,.03-.07,.14-.04,.04-.09,0-.13-.05-.04-.11-.06-.17-.05-.18,.03-.36,.05-.53,.08-.08,.02-.14,.07-.17,.15-.02,.04-.03,.08,.04,.07,.04,0,.08,.02,.08,.06,0,.04-.01,.08-.05,.09-.09,.02-.04,.06,0,.09,.07,.07,.16,.09,.25,.07,.14-.02,.28-.04,.42-.07,.13-.02,.21-.09,.25-.23Zm-4.8,.74c.07,.11,.17,.16,.3,.14,.15-.02,.3-.05,.45-.07,.1-.02,.17-.07,.21-.16,.02-.04,.04-.08-.04-.08-.04,0-.07-.03-.08-.07,0-.03,0-.06,.04-.07,.13-.04,.04-.09,0-.12-.06-.05-.12-.07-.2-.06-.16,.03-.33,.05-.49,.08-.1,.02-.16,.08-.2,.17,0,.02-.02,.06,.02,.06,.05,0,.11,0,.11,.07,0,.07-.07,.07-.11,.11Zm-1.94,.11c.06,.02,.13-.01,.14,.07,.01,.08-.06,.09-.11,.11,.07,.11,.17,.16,.29,.14,.15-.02,.31-.04,.46-.07,.12-.02,.21-.09,.23-.23-.06,0-.11,0-.13-.06-.01-.03,0-.07,.02-.08,.15-.06,.04-.1-.01-.14-.05-.04-.12-.05-.19-.04-.15,.02-.31,.05-.46,.07-.13,.02-.2,.09-.24,.22Z"/>
  <path d="M33.14,28.37s-.1-.02-.14-.03c-.16-.05-.31-.11-.45,.09-.08,.12-.25,.13-.39,.09-.17-.04-.33-.08-.49-.12-.2-.06-.32-.19-.35-.39,0-.07-.03-.1-.1-.11-.08-.01-.16-.03-.23-.06-.16-.05-.3-.09-.42,.09-.08,.12-.25,.13-.39,.1-.17-.04-.34-.08-.51-.13-.2-.06-.32-.19-.34-.4,0-.08-.04-.1-.1-.11-.14-.03-.29-.07-.43-.11-.06-.02-.1,0-.13,.05-.12,.18-.3,.24-.51,.19-.15-.04-.3-.07-.45-.11-.21-.06-.34-.19-.37-.41,0-.07-.03-.09-.09-.1-.15-.03-.3-.07-.44-.11-.06-.02-.1,0-.13,.05-.13,.18-.3,.24-.51,.19-.15-.04-.3-.07-.45-.11-.21-.06-.34-.19-.36-.41,0-.07-.04-.09-.1-.1-.08-.02-.17-.04-.25-.06-.15-.05-.28-.09-.41,.09-.09,.13-.26,.14-.42,.1-.15-.04-.3-.07-.45-.11-.22-.05-.35-.19-.38-.41,0-.07-.04-.09-.1-.1-.16-.04-.32-.08-.48-.12l.04-.16c.16,.04,.32,.08,.48,.12,.06,.02,.1,.01,.13-.04,.13-.19,.31-.24,.53-.18,.15,.04,.3,.08,.45,.11,.2,.05,.32,.17,.35,.38,.01,.09,.05,.12,.13,.13,.07,.01,.15,.03,.22,.05,.15,.05,.29,.08,.41-.09,.09-.12,.24-.14,.39-.1,.17,.04,.34,.08,.51,.13,.19,.05,.31,.18,.34,.37,.01,.1,.06,.12,.14,.14,.14,.03,.27,.06,.4,.1,.06,.02,.09,0,.13-.05,.13-.18,.3-.24,.51-.18,.15,.04,.3,.08,.45,.11,.21,.05,.33,.18,.36,.39,0,.07,.04,.1,.1,.11,.08,.02,.16,.04,.23,.06,.15,.04,.3,.11,.42-.09,.08-.12,.24-.14,.39-.1,.16,.04,.33,.08,.49,.12,.21,.05,.32,.18,.35,.39,.01,.08,.04,.11,.11,.12,.07,.01,.14,.03,.21,.05,.16,.05,.31,.1,.44-.09,.08-.11,.24-.13,.38-.09,.16,.04,.33,.08,.49,.12,.21,.05,.33,.19,.36,.4,0,.07,.03,.09,.09,.11,.12,.03,.24,.06,.36,.09l-.04,.16Zm-7.18-1.57c.09,.02,.17,.04,.26,.06,.09,.02,.17,0,.24-.06,.04-.03,.11-.07,0-.11-.04-.01-.05-.05-.05-.09,0-.04,.04-.07,.08-.06,.13,.01,.07-.06,.05-.11-.04-.08-.1-.13-.19-.15-.16-.04-.32-.08-.48-.12-.1-.02-.19,0-.27,.07-.04,.03-.07,.06,0,.09,.04,.01,.06,.06,.05,.1,0,.04-.04,.06-.08,.06-.11-.02-.07,.05-.05,.09,.04,.08,.09,.14,.18,.16,.09,.02,.17,.04,.26,.06Zm5.52,1.18c.02,.14,.09,.23,.21,.26,.17,.04,.34,.09,.5,.13,.11,.03,.2,0,.28-.09,.02-.02,.05-.04,0-.06-.06-.02-.1-.05-.07-.11,.03-.07,.1-.03,.15-.06-.03-.13-.1-.22-.23-.25-.16-.04-.32-.08-.48-.12-.11-.03-.2,0-.28,.08-.02,.01-.06,.04,0,.07,.06,.02,.09,.06,.07,.12-.03,.06-.09,.04-.15,.04Zm-7.94-2.18c.05,.04,.12,.05,.11,.13,0,.03-.03,.06-.06,.06-.16-.02-.08,.07-.05,.12,.03,.06,.08,.11,.15,.13,.19,.05,.37,.1,.56,.14,.09,.02,.17-.02,.23-.08,.03-.03,.06-.06,0-.09-.05-.01-.07-.05-.06-.09,0-.04,.05-.07,.09-.06,.1,.01,.06-.05,.05-.09-.04-.1-.12-.15-.22-.18-.15-.04-.29-.07-.44-.11-.13-.03-.25,0-.34,.12Zm5.02,1.25c-.02-.14-.1-.22-.24-.26-.15-.04-.31-.08-.47-.12-.1-.03-.19,0-.27,.06-.03,.03-.07,.06,0,.09,.04,.02,.06,.06,.05,.1,0,.03-.03,.06-.07,.05-.14-.01-.08,.07-.05,.12,.03,.07,.09,.12,.17,.14,.17,.04,.34,.09,.52,.13,.1,.02,.19,0,.27-.08,.02-.02,.05-.05,0-.06-.05-.02-.1-.04-.08-.11,.02-.07,.1-.04,.15-.06Zm1.95,.69s-.13-.04-.11-.12c.02-.08,.09-.06,.16-.06-.03-.14-.1-.23-.23-.26-.16-.04-.32-.08-.48-.12-.13-.03-.24,0-.32,.13,.06,.03,.11,.04,.11,.11,0,.03-.03,.07-.06,.07-.17,0-.08,.09-.05,.15,.03,.07,.1,.1,.17,.12,.16,.04,.32,.08,.48,.12,.13,.03,.23,0,.33-.12Z"/>
  <circle cx="35.34" cy="28.51" r="1.71"/>
  <path d="M21.9,25.3c-.09,0-.37-.05-.37-.05l-1.57-.37-.11-.03-.13-.03-.11-.03-.13-.03-.11-.03-.12-.03h-.03s-.03,.02-.03,.02l-.05,.2s0,.03,.01,.03c.01,0,.04,0,.04,0l.11,.03-.11,.48,.11,.03,.11-.48,.13,.03-.11,.48,.11,.03,.11-.48,.13,.03-.11,.48,.11,.03,.11-.48,1.56,.37s.29,.09,.38,.13c.27,.13,.81,.91,1.09,.81,.27-.09,.58-1.17,.22-1.35-.26-.14-.96,.23-1.25,.21Zm1.07,.05c.2,.1,.03,.71-.13,.76-.16,.05-.46-.38-.61-.46-.05-.02-.02-.19,.03-.18,.16,.01,.56-.2,.7-.12Z"/>
  <path d="M25.05,38.39c-.06,.07-.24,.28-.24,.28l-1.17,1.11-.08,.08-.1,.09-.08,.08-.1,.09-.08,.08-.09,.08-.02,.02s0,.04,0,.04l.14,.15s.02,.02,.03,0c0,0,.03-.02,.03-.02l.08-.08,.34,.36,.08-.08-.34-.36,.1-.09,.34,.36,.08-.08-.34-.36,.1-.09,.34,.36,.08-.08-.34-.36,1.16-1.1s.23-.2,.31-.25c.26-.16,1.2-.18,1.28-.47,.07-.28-.66-1.12-1.01-.93-.25,.14-.33,.93-.51,1.16Zm.63-.86c.2-.11,.61,.37,.57,.52-.04,.16-.57,.17-.72,.26-.05,.03-.16-.09-.13-.13,.1-.13,.14-.58,.28-.65Z"/>
  <path d="M34.95,43.24c.01,.09,.03,.37,.03,.37v1.62s-.02,.12-.02,.12v.13s0,.12,0,.12v.13s0,.12,0,.12v.12s0,.02,0,.03c0,.03,.03,.02,.03,.02h.2s.03,0,.03-.02c0-.01,0-.04,0-.04v-.12s.49,0,.49,0v-.12s-.49,0-.49,0v-.13s.49,0,.49,0v-.12s-.49,0-.49,0v-.13s.49,0,.49,0v-.12s-.49,0-.49,0v-1.6s.03-.3,.05-.4c.07-.29,.7-.99,.55-1.24-.15-.24-1.26-.3-1.37,.08-.08,.28,.44,.89,.49,1.17Zm-.18-1.05c.06-.22,.68-.18,.77-.05,.09,.14-.27,.53-.31,.7-.01,.05-.18,.06-.19,0-.03-.16-.32-.5-.27-.66Z"/>
  <path d="M45.29,39.04c.07,.06,.25,.27,.25,.27l.98,1.28,.07,.09,.08,.1,.07,.09,.08,.1,.07,.09,.07,.1,.02,.02s.04,0,.04,0l.16-.12s.02-.02,0-.03c0-.01-.02-.03-.02-.03l-.07-.09,.39-.3-.07-.09-.39,.3-.08-.1,.39-.3-.07-.09-.39,.3-.08-.1,.39-.3-.07-.09-.39,.3-.97-1.27s-.17-.25-.21-.34c-.13-.27-.05-1.22-.33-1.32-.27-.1-1.18,.54-1.03,.91,.11,.27,.89,.43,1.11,.63Zm-.79-.72c-.09-.21,.43-.56,.58-.51,.15,.06,.11,.59,.19,.74,.02,.05-.1,.15-.14,.12-.12-.11-.56-.2-.62-.35Z"/>
  <path d="M48.6,26.86c.09-.03,.36-.1,.36-.1l1.59-.27,.11-.02,.13-.02,.11-.02,.13-.02,.11-.02,.12-.02h.03s.02-.04,.02-.04l-.03-.2s0-.02-.02-.02c-.01,0-.04,0-.04,0l-.11,.02-.08-.48-.11,.02,.08,.48-.13,.02-.08-.48-.11,.02,.08,.48-.13,.02-.08-.48-.11,.02,.08,.48-1.58,.27s-.3,.03-.4,.03c-.3-.01-1.1-.52-1.32-.32-.21,.19-.08,1.3,.32,1.33,.29,.03,.79-.59,1.07-.69Zm-1,.37c-.22-.02-.3-.64-.18-.75,.12-.11,.57,.17,.74,.18,.05,0,.09,.16,.04,.18-.15,.05-.44,.4-.6,.38Z"/>
  <path d="M40.42,16.93c.01-.09,.07-.36,.07-.36l.47-1.55,.03-.11,.04-.13,.03-.11,.04-.13,.03-.11,.04-.12v-.03s-.01-.03-.01-.03l-.19-.06s-.03,0-.03,.01c0,.01-.01,.03-.01,.03l-.03,.11-.47-.14-.03,.11,.47,.14-.04,.13-.47-.14-.03,.11,.47,.14-.04,.13-.47-.14-.03,.11,.47,.14-.46,1.53s-.1,.29-.15,.37c-.15,.26-.95,.76-.88,1.04,.07,.27,1.13,.65,1.34,.3,.15-.25-.17-.97-.14-1.26Zm-.12,1.06c-.12,.19-.71-.02-.75-.17-.04-.16,.41-.44,.49-.58,.03-.05,.19,0,.18,.05-.02,.16,.16,.57,.08,.71Z"/>
  <path d="M30.29,16.92c-.05-.08-.17-.33-.17-.33l-.58-1.51-.04-.11-.05-.12-.04-.11-.05-.12-.04-.11-.04-.11v-.03s-.05,0-.05,0l-.19,.07s-.02,.01-.02,.03c0,.01,.01,.03,.01,.03l.04,.11-.46,.18,.04,.11,.46-.18,.05,.12-.46,.18,.04,.11,.46-.18,.05,.12-.46,.18,.04,.11,.46-.18,.58,1.49s.09,.29,.11,.38c.05,.3-.29,1.18-.05,1.36,.23,.17,1.29-.18,1.24-.58-.03-.29-.74-.66-.89-.91Zm.56,.91c.03,.22-.57,.42-.7,.33-.13-.1,.06-.6,.03-.76,0-.05,.14-.12,.17-.07,.08,.14,.48,.35,.5,.51Z"/>
</svg>