<?xml version="1.0" encoding="UTF-8"?>
<svg id="_Ícone" data-name="Ícone" xmlns="http://www.w3.org/2000/svg" viewBox="0 0 479.99 479.99">
  <defs>
    <style>
      .cls-1 {
        fill: #fff;
      }

      .cls-2 {
        fill: #fdc61c;
      }
    </style>
  </defs>
  <circle class="cls-2" cx="240" cy="242" r="207.04"/>
  <polygon class="cls-1" points="240 81.08 126.21 128.21 79.08 242 126.21 355.78 240 402.91 353.78 355.78 400.91 242 353.78 128.21 240 81.08"/>
  <g>
    <path d="M271.63,353.05l18.02-22.08s22.67-125.83,22.67-125.83c-.73,.53-36.25,80.75-36.25,80.75l11.26-85.29-33.76,85.29-13.56-89.52-13.44,89.52-33.89-85.3,10.87,85.3-35.2-80.26,22.33,125.35s17.96,22.08,17.96,22.08l31.34,4.84,31.65-4.84Z"/>
    <polygon points="329.73 169.36 150.26 169.36 160.06 150.11 319.93 150.11 329.73 169.36"/>
    <polygon points="329.73 196.37 299.15 178.27 279.33 196.37 260.62 178.27 240 196.37 219.88 178.27 199.33 196.37 180.61 178.27 150.26 196.37 150.26 178.27 329.73 178.27 329.73 196.37"/>
  </g>
</svg>