<?xml version="1.0" encoding="UTF-8"?>
<svg id="Mapa_01" data-name="Mapa 01" xmlns="http://www.w3.org/2000/svg" viewBox="0 0 74.8 67.79">
  <defs>
    <style>
      .cls-1 {
        fill: #fff;
      }

      .cls-2 {
        fill: #fdc61c;
      }

      .cls-3 {
        fill: #1d1d1b;
      }
    </style>
  </defs>
  <circle class="cls-2" cx="37.4" cy="33.89" r="26.39"/>
  <path class="cls-1" d="M58.83,33.89c0,2.77-2.47,5.03-3.47,7.43s-.92,5.83-2.8,7.71-5.22,1.77-7.71,2.8-4.67,3.47-7.43,3.47-5.03-2.47-7.43-3.47-5.83-.92-7.71-2.8-1.77-5.22-2.8-7.71-3.47-4.67-3.47-7.43,2.47-5.03,3.47-7.43,.92-5.83,2.8-7.71,5.22-1.77,7.71-2.8,4.67-3.47,7.43-3.47,5.03,2.47,7.43,3.47,5.83,.92,7.71,2.8,1.77,5.22,2.8,7.71,3.47,4.67,3.47,7.43Z"/>
  <g>
    <g>
      <g>
        <path d="M50.86,27.84c-1.81-.56-5.77-1.03-5.77-1.03,0,0-3.08-4.51-7.69-4.51-3.22,0-7.07,4.3-7.07,4.3,0,0-4.03,.74-5.74,1.24-1.08,.32-1.94,1.42-1.82,1.97,.23,1,1.21,3.93,1.21,3.93,.13,.45,1.41,4.78,1.66,5.39,.16,.38,.21,.81,.5,1.15,.38,.45,.86,.75,1.37,1,1.05,.53,2.18,.83,3.32,1.04,4.04,.76,8.11,.78,12.18,.42,1.8-.16,3.59-.51,5.24-1.32,1.02-.5,1.71-1.23,1.85-2.43,.03-.31,1.05-4.94,1.12-5.26,0,0,.78-3.07,.82-4.12,.02-.53-.19-1.46-1.18-1.77Z"/>
        <path d="M38.14,42.98c-2.6,0-5.01-.21-7.3-.65-1.36-.26-2.42-.59-3.33-1.04-.42-.21-.96-.52-1.38-1.01-.19-.23-.28-.5-.36-.77-.04-.13-.08-.26-.13-.38-.23-.54-1.25-3.98-1.58-5.11-.04-.13-.07-.23-.08-.28,0-.03-.98-2.94-1.21-3.93-.13-.57,.77-1.67,1.83-1.98,1.67-.49,5.61-1.22,5.74-1.24,.05-.05,1-1.11,2.33-2.15,.79-.62,1.56-1.12,2.28-1.48,.9-.45,1.73-.67,2.47-.67,1.05,0,2.11,.24,3.15,.71,.83,.37,1.65,.9,2.43,1.55,1.3,1.09,2.07,2.19,2.11,2.25,.14,.02,4,.48,5.77,1.03,.44,.14,.77,.41,.97,.8,.21,.4,.22,.81,.21,.97-.03,1.04-.81,4.09-.82,4.12-.02,.07-.08,.38-.17,.79-.3,1.37-.92,4.23-.95,4.47-.12,1.09-.71,1.87-1.85,2.43-1.44,.71-3.1,1.13-5.24,1.32-1.7,.15-3.32,.23-4.88,.23Zm-.74-20.66c-1.66,0-3.49,1.17-4.74,2.15-1.35,1.06-2.32,2.14-2.33,2.15h0s0,0,0,0c-.04,0-4.04,.75-5.74,1.24-.49,.14-.99,.47-1.36,.9-.34,.39-.52,.8-.46,1.06,.23,.99,1.2,3.9,1.21,3.93,.01,.05,.04,.15,.08,.28,.33,1.13,1.35,4.57,1.58,5.11,.05,.12,.09,.26,.13,.38,.08,.26,.17,.54,.36,.76,.41,.49,.95,.79,1.37,1,.91,.45,1.96,.79,3.32,1.04,3.65,.69,7.64,.83,12.17,.42,2.14-.19,3.8-.61,5.24-1.32,1.14-.56,1.72-1.33,1.84-2.42,.03-.24,.65-3.1,.95-4.47,.09-.42,.16-.72,.17-.79,0-.03,.78-3.08,.82-4.11,0-.23-.01-1.4-1.17-1.76-1.79-.56-5.73-1.02-5.77-1.03h0s0,0,0,0c0-.01-.78-1.14-2.11-2.25-1.23-1.03-3.19-2.25-5.57-2.25Z"/>
      </g>
      <g>
        <g>
          <g>
            <path class="cls-3" d="M28.77,47.73c0-.45-.59-.52-.59-.07s.59,.52,.59,.07Z"/>
            <path class="cls-3" d="M28.13,46.54c-.03,.15-.06,.3,.03,.44,.11,.15,.29,.12,.39-.02,.08-.11,.06-.24,.03-.37-.03-.12-.1-.22-.21-.23-.1-.01-.22,.06-.24,.18Z"/>
            <path class="cls-3" d="M28.71,45.91c0-.36-.47-.41-.47-.05s.47,.41,.47,.05Z"/>
            <path class="cls-3" d="M28.28,44.8s0,.06,0,.1c.04-.07,.08-.13,.12-.2-.24,.09-.18,.53,.06,.55,.29,.03,.37-.46,.09-.56,.04,.06,.09,.12,.13,.18,0-.03,0-.06,0-.1-.02-.27-.37-.24-.39,.02Z"/>
            <path class="cls-3" d="M28.72,43.95c0-.37-.49-.43-.49-.05s.49,.43,.49,.05Z"/>
          </g>
          <g>
            <path class="cls-3" d="M28.77,43.11c0-.45-.59-.52-.59-.07s.59,.52,.59,.07Z"/>
            <path class="cls-3" d="M28.13,41.93c-.03,.15-.06,.3,.03,.44,.11,.15,.29,.12,.39-.02,.08-.11,.06-.24,.03-.37-.03-.12-.1-.22-.21-.23-.1-.01-.22,.06-.24,.18Z"/>
            <path class="cls-3" d="M28.71,41.29c0-.36-.47-.41-.47-.05s.47,.41,.47,.05Z"/>
            <path class="cls-3" d="M28.28,40.19s0,.06,0,.1c.04-.07,.08-.13,.12-.2-.24,.09-.18,.53,.06,.55,.29,.03,.37-.46,.09-.56,.04,.06,.09,.12,.13,.18,0-.03,0-.06,0-.1-.02-.27-.37-.24-.39,.02Z"/>
            <path class="cls-3" d="M28.72,39.33c0-.37-.49-.43-.49-.05s.49,.43,.49,.05Z"/>
          </g>
        </g>
        <g>
          <g>
            <path class="cls-3" d="M29.8,48.28c0-.44-.59-.51-.59-.06s.59,.51,.59,.06Z"/>
            <path class="cls-3" d="M29.16,47.11c-.03,.15-.06,.3,.03,.43,.11,.15,.29,.12,.39-.02,.08-.11,.06-.24,.03-.36-.03-.12-.1-.21-.21-.22-.1-.01-.22,.06-.24,.18Z"/>
            <path class="cls-3" d="M29.74,46.49c0-.35-.47-.4-.47-.05s.47,.4,.47,.05Z"/>
            <path class="cls-3" d="M29.31,45.4s0,.06,0,.1c.04-.06,.08-.13,.12-.19-.24,.09-.18,.52,.06,.54,.29,.03,.37-.46,.09-.55,.04,.06,.09,.12,.13,.18,0-.03,0-.06,0-.09-.02-.26-.37-.23-.39,.02Z"/>
            <path class="cls-3" d="M29.75,44.56c0-.36-.49-.42-.49-.05s.49,.42,.49,.05Z"/>
          </g>
          <g>
            <path class="cls-3" d="M29.8,43.74c0-.44-.59-.51-.59-.06s.59,.51,.59,.06Z"/>
            <path class="cls-3" d="M29.16,42.58c-.03,.15-.06,.3,.03,.43,.11,.15,.29,.12,.39-.02,.08-.11,.06-.24,.03-.36-.03-.12-.1-.21-.21-.22-.1-.01-.22,.06-.24,.18Z"/>
            <path class="cls-3" d="M29.74,41.95c0-.35-.47-.4-.47-.05s.47,.4,.47,.05Z"/>
            <path class="cls-3" d="M29.31,40.87s0,.06,0,.1c.04-.06,.08-.13,.12-.19-.24,.09-.18,.52,.06,.54,.29,.03,.37-.46,.09-.55,.04,.06,.09,.12,.13,.18,0-.03,0-.06,0-.09-.02-.26-.37-.23-.39,.02Z"/>
            <path class="cls-3" d="M29.75,40.02c0-.36-.49-.42-.49-.05s.49,.42,.49,.05Z"/>
          </g>
        </g>
        <g>
          <g>
            <path class="cls-3" d="M30.99,49.06c0-.44-.59-.51-.59-.06s.59,.51,.59,.06Z"/>
            <path class="cls-3" d="M30.35,47.89c-.03,.15-.06,.3,.03,.43,.11,.15,.29,.12,.39-.02,.08-.11,.06-.24,.03-.36-.03-.12-.1-.21-.21-.22-.1-.01-.22,.06-.24,.18Z"/>
            <path class="cls-3" d="M30.93,47.27c0-.35-.47-.4-.47-.05s.47,.4,.47,.05Z"/>
            <path class="cls-3" d="M30.5,46.18s0,.06,0,.1c.04-.06,.08-.13,.12-.19-.24,.09-.18,.52,.06,.54,.29,.03,.37-.46,.09-.55,.04,.06,.09,.12,.13,.18,0-.03,0-.06,0-.09-.02-.26-.37-.23-.39,.02Z"/>
            <path class="cls-3" d="M30.94,45.34c0-.36-.49-.42-.49-.05s.49,.42,.49,.05Z"/>
          </g>
          <g>
            <path class="cls-3" d="M30.99,44.52c0-.44-.59-.51-.59-.06s.59,.51,.59,.06Z"/>
            <path class="cls-3" d="M30.35,43.36c-.03,.15-.06,.3,.03,.43,.11,.15,.29,.12,.39-.02,.08-.11,.06-.24,.03-.36-.03-.12-.1-.21-.21-.22-.1-.01-.22,.06-.24,.18Z"/>
            <path class="cls-3" d="M30.93,42.74c0-.35-.47-.4-.47-.05s.47,.4,.47,.05Z"/>
            <path class="cls-3" d="M30.5,41.65s0,.06,0,.1c.04-.06,.08-.13,.12-.19-.24,.09-.18,.52,.06,.54,.29,.03,.37-.46,.09-.55,.04,.06,.09,.12,.13,.18,0-.03,0-.06,0-.09-.02-.26-.37-.23-.39,.02Z"/>
            <path class="cls-3" d="M30.94,40.81c0-.36-.49-.42-.49-.05s.49,.42,.49,.05Z"/>
          </g>
        </g>
        <g>
          <g>
            <path class="cls-3" d="M32.05,49.83c0-.44-.59-.51-.59-.06s.59,.51,.59,.06Z"/>
            <path class="cls-3" d="M31.4,48.66c-.03,.15-.06,.3,.03,.43,.11,.15,.29,.12,.39-.02,.08-.11,.06-.24,.03-.36-.03-.12-.1-.21-.21-.22-.1-.01-.22,.06-.24,.18Z"/>
            <path class="cls-3" d="M31.99,48.04c0-.35-.47-.4-.47-.05s.47,.4,.47,.05Z"/>
            <path class="cls-3" d="M31.55,46.95s0,.06,0,.1c.04-.06,.08-.13,.12-.19-.24,.09-.18,.52,.06,.54,.29,.03,.37-.46,.09-.55,.04,.06,.09,.12,.13,.18,0-.03,0-.06,0-.09-.02-.26-.37-.23-.39,.02Z"/>
            <path class="cls-3" d="M31.99,46.11c0-.36-.49-.42-.49-.05s.49,.42,.49,.05Z"/>
          </g>
          <g>
            <path class="cls-3" d="M32.05,45.29c0-.44-.59-.51-.59-.06s.59,.51,.59,.06Z"/>
            <path class="cls-3" d="M31.4,44.13c-.03,.15-.06,.3,.03,.43,.11,.15,.29,.12,.39-.02,.08-.11,.06-.24,.03-.36-.03-.12-.1-.21-.21-.22-.1-.01-.22,.06-.24,.18Z"/>
            <path class="cls-3" d="M31.99,43.5c0-.35-.47-.4-.47-.05s.47,.4,.47,.05Z"/>
            <path class="cls-3" d="M31.55,42.42s0,.06,0,.1c.04-.06,.08-.13,.12-.19-.24,.09-.18,.52,.06,.54,.29,.03,.37-.46,.09-.55,.04,.06,.09,.12,.13,.18,0-.03,0-.06,0-.09-.02-.26-.37-.23-.39,.02Z"/>
            <path class="cls-3" d="M31.99,41.58c0-.36-.49-.42-.49-.05s.49,.42,.49,.05Z"/>
          </g>
        </g>
        <g>
          <g>
            <path class="cls-3" d="M33.2,50.15c0-.44-.59-.51-.59-.06s.59,.51,.59,.06Z"/>
            <path class="cls-3" d="M32.56,48.98c-.03,.15-.06,.3,.03,.43,.11,.15,.29,.12,.39-.02,.08-.11,.06-.24,.03-.36-.03-.12-.1-.21-.21-.22-.1-.01-.22,.06-.24,.18Z"/>
            <path class="cls-3" d="M33.14,48.36c0-.35-.47-.4-.47-.05s.47,.4,.47,.05Z"/>
            <path class="cls-3" d="M32.71,47.27s0,.06,0,.1c.04-.06,.08-.13,.12-.19-.24,.09-.18,.52,.06,.54,.29,.03,.37-.46,.09-.55,.04,.06,.09,.12,.13,.18,0-.03,0-.06,0-.09-.02-.26-.37-.23-.39,.02Z"/>
            <path class="cls-3" d="M33.15,46.43c0-.36-.49-.42-.49-.05s.49,.42,.49,.05Z"/>
          </g>
          <g>
            <path class="cls-3" d="M33.2,45.61c0-.44-.59-.51-.59-.06s.59,.51,.59,.06Z"/>
            <path class="cls-3" d="M32.56,44.45c-.03,.15-.06,.3,.03,.43,.11,.15,.29,.12,.39-.02,.08-.11,.06-.24,.03-.36-.03-.12-.1-.21-.21-.22-.1-.01-.22,.06-.24,.18Z"/>
            <path class="cls-3" d="M33.14,43.83c0-.35-.47-.4-.47-.05s.47,.4,.47,.05Z"/>
            <path class="cls-3" d="M32.71,42.74s0,.06,0,.1c.04-.06,.08-.13,.12-.19-.24,.09-.18,.52,.06,.54,.29,.03,.37-.46,.09-.55,.04,.06,.09,.12,.13,.18,0-.03,0-.06,0-.09-.02-.26-.37-.23-.39,.02Z"/>
            <path class="cls-3" d="M33.15,41.9c0-.36-.49-.42-.49-.05s.49,.42,.49,.05Z"/>
          </g>
        </g>
        <g>
          <g>
            <path class="cls-3" d="M34.2,50.35c0-.44-.59-.51-.59-.06s.59,.51,.59,.06Z"/>
            <path class="cls-3" d="M33.56,49.18c-.03,.15-.06,.3,.03,.43,.11,.15,.29,.12,.39-.02,.08-.11,.06-.24,.03-.36-.03-.12-.1-.21-.21-.22-.1-.01-.22,.06-.24,.18Z"/>
            <path class="cls-3" d="M34.14,48.56c0-.35-.47-.4-.47-.05s.47,.4,.47,.05Z"/>
            <path class="cls-3" d="M33.71,47.47s0,.06,0,.1c.04-.06,.08-.13,.12-.19-.24,.09-.18,.52,.06,.54,.29,.03,.37-.46,.09-.55,.04,.06,.09,.12,.13,.18,0-.03,0-.06,0-.09-.02-.26-.37-.23-.39,.02Z"/>
            <path class="cls-3" d="M34.15,46.63c0-.36-.49-.42-.49-.05s.49,.42,.49,.05Z"/>
          </g>
          <g>
            <path class="cls-3" d="M34.2,45.81c0-.44-.59-.51-.59-.06s.59,.51,.59,.06Z"/>
            <path class="cls-3" d="M33.56,44.64c-.03,.15-.06,.3,.03,.43,.11,.15,.29,.12,.39-.02,.08-.11,.06-.24,.03-.36-.03-.12-.1-.21-.21-.22-.1-.01-.22,.06-.24,.18Z"/>
            <path class="cls-3" d="M34.14,44.02c0-.35-.47-.4-.47-.05s.47,.4,.47,.05Z"/>
            <path class="cls-3" d="M33.71,42.93s0,.06,0,.1c.04-.06,.08-.13,.12-.19-.24,.09-.18,.52,.06,.54,.29,.03,.37-.46,.09-.55,.04,.06,.09,.12,.13,.18,0-.03,0-.06,0-.09-.02-.26-.37-.23-.39,.02Z"/>
            <path class="cls-3" d="M34.15,42.09c0-.36-.49-.42-.49-.05s.49,.42,.49,.05Z"/>
          </g>
        </g>
        <g>
          <g>
            <path class="cls-3" d="M35.29,50.73c0-.44-.59-.51-.59-.06s.59,.51,.59,.06Z"/>
            <path class="cls-3" d="M34.65,49.56c-.03,.15-.06,.3,.03,.43,.11,.15,.29,.12,.39-.02,.08-.11,.06-.24,.03-.36-.03-.12-.1-.21-.21-.22-.1-.01-.22,.06-.24,.18Z"/>
            <path class="cls-3" d="M35.23,48.94c0-.35-.47-.4-.47-.05s.47,.4,.47,.05Z"/>
            <path class="cls-3" d="M34.8,47.85s0,.06,0,.1c.04-.06,.08-.13,.12-.19-.24,.09-.18,.52,.06,.54,.29,.03,.37-.46,.09-.55,.04,.06,.09,.12,.13,.18,0-.03,0-.06,0-.09-.02-.26-.37-.23-.39,.02Z"/>
            <path class="cls-3" d="M35.24,47.01c0-.36-.49-.42-.49-.05s.49,.42,.49,.05Z"/>
          </g>
          <g>
            <path class="cls-3" d="M35.29,46.19c0-.44-.59-.51-.59-.06s.59,.51,.59,.06Z"/>
            <path class="cls-3" d="M34.65,45.03c-.03,.15-.06,.3,.03,.43,.11,.15,.29,.12,.39-.02,.08-.11,.06-.24,.03-.36-.03-.12-.1-.21-.21-.22-.1-.01-.22,.06-.24,.18Z"/>
            <path class="cls-3" d="M35.23,44.41c0-.35-.47-.4-.47-.05s.47,.4,.47,.05Z"/>
            <path class="cls-3" d="M34.8,43.32s0,.06,0,.1c.04-.06,.08-.13,.12-.19-.24,.09-.18,.52,.06,.54,.29,.03,.37-.46,.09-.55,.04,.06,.09,.12,.13,.18,0-.03,0-.06,0-.09-.02-.26-.37-.23-.39,.02Z"/>
            <path class="cls-3" d="M35.24,42.48c0-.36-.49-.42-.49-.05s.49,.42,.49,.05Z"/>
          </g>
        </g>
        <g>
          <g>
            <path class="cls-3" d="M36.45,51.22c0-.44-.59-.51-.59-.06s.59,.51,.59,.06Z"/>
            <path class="cls-3" d="M35.8,50.05c-.03,.15-.06,.3,.03,.43,.11,.15,.29,.12,.39-.02,.08-.11,.06-.24,.03-.36-.03-.12-.1-.21-.21-.22-.1-.01-.22,.06-.24,.18Z"/>
            <path class="cls-3" d="M36.39,49.43c0-.35-.47-.4-.47-.05s.47,.4,.47,.05Z"/>
            <path class="cls-3" d="M35.95,48.34s0,.06,0,.1c.04-.06,.08-.13,.12-.19-.24,.09-.18,.52,.06,.54,.29,.03,.37-.46,.09-.55,.04,.06,.09,.12,.13,.18,0-.03,0-.06,0-.09-.02-.26-.37-.23-.39,.02Z"/>
            <path class="cls-3" d="M36.39,47.5c0-.36-.49-.42-.49-.05s.49,.42,.49,.05Z"/>
          </g>
          <g>
            <path class="cls-3" d="M36.45,46.68c0-.44-.59-.51-.59-.06s.59,.51,.59,.06Z"/>
            <path class="cls-3" d="M35.8,45.52c-.03,.15-.06,.3,.03,.43,.11,.15,.29,.12,.39-.02,.08-.11,.06-.24,.03-.36-.03-.12-.1-.21-.21-.22-.1-.01-.22,.06-.24,.18Z"/>
            <path class="cls-3" d="M36.39,44.9c0-.35-.47-.4-.47-.05s.47,.4,.47,.05Z"/>
            <path class="cls-3" d="M35.95,43.81s0,.06,0,.1c.04-.06,.08-.13,.12-.19-.24,.09-.18,.52,.06,.54,.29,.03,.37-.46,.09-.55,.04,.06,.09,.12,.13,.18,0-.03,0-.06,0-.09-.02-.26-.37-.23-.39,.02Z"/>
            <path class="cls-3" d="M36.39,42.97c0-.36-.49-.42-.49-.05s.49,.42,.49,.05Z"/>
          </g>
        </g>
        <g>
          <g>
            <path class="cls-3" d="M37.56,51.48c0-.44-.59-.51-.59-.06s.59,.51,.59,.06Z"/>
            <path class="cls-3" d="M36.91,50.31c-.03,.15-.06,.3,.03,.43,.11,.15,.29,.12,.39-.02,.08-.11,.06-.24,.03-.36-.03-.12-.1-.21-.21-.22-.1-.01-.22,.06-.24,.18Z"/>
            <path class="cls-3" d="M37.5,49.69c0-.35-.47-.4-.47-.05s.47,.4,.47,.05Z"/>
            <path class="cls-3" d="M37.07,48.6s0,.06,0,.1c.04-.06,.08-.13,.12-.19-.24,.09-.18,.52,.06,.54,.29,.03,.37-.46,.09-.55,.04,.06,.09,.12,.13,.18,0-.03,0-.06,0-.09-.02-.26-.37-.23-.39,.02Z"/>
            <path class="cls-3" d="M37.51,47.76c0-.36-.49-.42-.49-.05s.49,.42,.49,.05Z"/>
          </g>
          <g>
            <path class="cls-3" d="M37.56,46.94c0-.44-.59-.51-.59-.06s.59,.51,.59,.06Z"/>
            <path class="cls-3" d="M36.91,45.77c-.03,.15-.06,.3,.03,.43,.11,.15,.29,.12,.39-.02,.08-.11,.06-.24,.03-.36-.03-.12-.1-.21-.21-.22-.1-.01-.22,.06-.24,.18Z"/>
            <path class="cls-3" d="M37.5,45.15c0-.35-.47-.4-.47-.05s.47,.4,.47,.05Z"/>
            <path class="cls-3" d="M37.07,44.07s0,.06,0,.1c.04-.06,.08-.13,.12-.19-.24,.09-.18,.52,.06,.54,.29,.03,.37-.46,.09-.55,.04,.06,.09,.12,.13,.18,0-.03,0-.06,0-.09-.02-.26-.37-.23-.39,.02Z"/>
            <path class="cls-3" d="M37.51,43.22c0-.36-.49-.42-.49-.05s.49,.42,.49,.05Z"/>
          </g>
        </g>
        <g>
          <g>
            <path class="cls-3" d="M47.32,47.88c0-.45-.59-.52-.59-.07s.59,.52,.59,.07Z"/>
            <path class="cls-3" d="M46.68,46.69c-.03,.15-.06,.3,.03,.44,.11,.15,.29,.12,.39-.02,.08-.11,.06-.24,.03-.37-.03-.12-.1-.22-.21-.23-.1-.01-.22,.06-.24,.18Z"/>
            <path class="cls-3" d="M47.26,46.06c0-.36-.47-.41-.47-.05s.47,.41,.47,.05Z"/>
            <path class="cls-3" d="M46.83,44.95s0,.06,0,.1c.04-.07,.08-.13,.12-.2-.24,.09-.18,.53,.06,.55,.29,.03,.37-.46,.09-.56,.04,.06,.09,.12,.13,.18,0-.03,0-.06,0-.1-.02-.27-.37-.24-.39,.02Z"/>
            <path class="cls-3" d="M47.27,44.09c0-.37-.49-.43-.49-.05s.49,.43,.49,.05Z"/>
          </g>
          <g>
            <path class="cls-3" d="M47.32,43.26c0-.45-.59-.52-.59-.07s.59,.52,.59,.07Z"/>
            <path class="cls-3" d="M46.68,42.07c-.03,.15-.06,.3,.03,.44,.11,.15,.29,.12,.39-.02,.08-.11,.06-.24,.03-.37-.03-.12-.1-.22-.21-.23-.1-.01-.22,.06-.24,.18Z"/>
            <path class="cls-3" d="M47.26,41.44c0-.36-.47-.41-.47-.05s.47,.41,.47,.05Z"/>
            <path class="cls-3" d="M46.83,40.33s0,.06,0,.1c.04-.07,.08-.13,.12-.2-.24,.09-.18,.53,.06,.55,.29,.03,.37-.46,.09-.56,.04,.06,.09,.12,.13,.18,0-.03,0-.06,0-.1-.02-.27-.37-.24-.39,.02Z"/>
            <path class="cls-3" d="M47.27,39.48c0-.37-.49-.43-.49-.05s.49,.43,.49,.05Z"/>
          </g>
        </g>
        <g>
          <g>
            <path class="cls-3" d="M46.29,48.42c0-.44-.59-.51-.59-.06s.59,.51,.59,.06Z"/>
            <path class="cls-3" d="M45.65,47.26c-.03,.15-.06,.3,.03,.43,.11,.15,.29,.12,.39-.02,.08-.11,.06-.24,.03-.36-.03-.12-.1-.21-.21-.22-.1-.01-.22,.06-.24,.18Z"/>
            <path class="cls-3" d="M46.23,46.64c0-.35-.47-.4-.47-.05s.47,.4,.47,.05Z"/>
            <path class="cls-3" d="M45.8,45.55s0,.06,0,.1c.04-.06,.08-.13,.12-.19-.24,.09-.18,.52,.06,.54,.29,.03,.37-.46,.09-.55,.04,.06,.09,.12,.13,.18,0-.03,0-.06,0-.09-.02-.26-.37-.23-.39,.02Z"/>
            <path class="cls-3" d="M46.24,44.71c0-.36-.49-.42-.49-.05s.49,.42,.49,.05Z"/>
          </g>
          <g>
            <path class="cls-3" d="M46.29,43.89c0-.44-.59-.51-.59-.06s.59,.51,.59,.06Z"/>
            <path class="cls-3" d="M45.65,42.72c-.03,.15-.06,.3,.03,.43,.11,.15,.29,.12,.39-.02,.08-.11,.06-.24,.03-.36-.03-.12-.1-.21-.21-.22-.1-.01-.22,.06-.24,.18Z"/>
            <path class="cls-3" d="M46.23,42.1c0-.35-.47-.4-.47-.05s.47,.4,.47,.05Z"/>
            <path class="cls-3" d="M45.8,41.01s0,.06,0,.1c.04-.06,.08-.13,.12-.19-.24,.09-.18,.52,.06,.54,.29,.03,.37-.46,.09-.55,.04,.06,.09,.12,.13,.18,0-.03,0-.06,0-.09-.02-.26-.37-.23-.39,.02Z"/>
            <path class="cls-3" d="M46.24,40.17c0-.36-.49-.42-.49-.05s.49,.42,.49,.05Z"/>
          </g>
        </g>
        <g>
          <g>
            <path class="cls-3" d="M45.11,49.21c0-.44-.59-.51-.59-.06s.59,.51,.59,.06Z"/>
            <path class="cls-3" d="M44.46,48.04c-.03,.15-.06,.3,.03,.43,.11,.15,.29,.12,.39-.02,.08-.11,.06-.24,.03-.36-.03-.12-.1-.21-.21-.22-.1-.01-.22,.06-.24,.18Z"/>
            <path class="cls-3" d="M45.05,47.42c0-.35-.47-.4-.47-.05s.47,.4,.47,.05Z"/>
            <path class="cls-3" d="M44.61,46.33s0,.06,0,.1c.04-.06,.08-.13,.12-.19-.24,.09-.18,.52,.06,.54,.29,.03,.37-.46,.09-.55,.04,.06,.09,.12,.13,.18,0-.03,0-.06,0-.09-.02-.26-.37-.23-.39,.02Z"/>
            <path class="cls-3" d="M45.05,45.49c0-.36-.49-.42-.49-.05s.49,.42,.49,.05Z"/>
          </g>
          <g>
            <path class="cls-3" d="M45.11,44.67c0-.44-.59-.51-.59-.06s.59,.51,.59,.06Z"/>
            <path class="cls-3" d="M44.46,43.5c-.03,.15-.06,.3,.03,.43,.11,.15,.29,.12,.39-.02,.08-.11,.06-.24,.03-.36-.03-.12-.1-.21-.21-.22-.1-.01-.22,.06-.24,.18Z"/>
            <path class="cls-3" d="M45.05,42.88c0-.35-.47-.4-.47-.05s.47,.4,.47,.05Z"/>
            <path class="cls-3" d="M44.61,41.8s0,.06,0,.1c.04-.06,.08-.13,.12-.19-.24,.09-.18,.52,.06,.54,.29,.03,.37-.46,.09-.55,.04,.06,.09,.12,.13,.18,0-.03,0-.06,0-.09-.02-.26-.37-.23-.39,.02Z"/>
            <path class="cls-3" d="M45.05,40.95c0-.36-.49-.42-.49-.05s.49,.42,.49,.05Z"/>
          </g>
        </g>
        <g>
          <g>
            <path class="cls-3" d="M44.05,49.98c0-.44-.59-.51-.59-.06s.59,.51,.59,.06Z"/>
            <path class="cls-3" d="M43.4,48.81c-.03,.15-.06,.3,.03,.43,.11,.15,.29,.12,.39-.02,.08-.11,.06-.24,.03-.36-.03-.12-.1-.21-.21-.22-.1-.01-.22,.06-.24,.18Z"/>
            <path class="cls-3" d="M43.99,48.19c0-.35-.47-.4-.47-.05s.47,.4,.47,.05Z"/>
            <path class="cls-3" d="M43.56,47.1s0,.06,0,.1c.04-.06,.08-.13,.12-.19-.24,.09-.18,.52,.06,.54,.29,.03,.37-.46,.09-.55,.04,.06,.09,.12,.13,.18,0-.03,0-.06,0-.09-.02-.26-.37-.23-.39,.02Z"/>
            <path class="cls-3" d="M44,46.26c0-.36-.49-.42-.49-.05s.49,.42,.49,.05Z"/>
          </g>
          <g>
            <path class="cls-3" d="M44.05,45.44c0-.44-.59-.51-.59-.06s.59,.51,.59,.06Z"/>
            <path class="cls-3" d="M43.4,44.27c-.03,.15-.06,.3,.03,.43,.11,.15,.29,.12,.39-.02,.08-.11,.06-.24,.03-.36-.03-.12-.1-.21-.21-.22-.1-.01-.22,.06-.24,.18Z"/>
            <path class="cls-3" d="M43.99,43.65c0-.35-.47-.4-.47-.05s.47,.4,.47,.05Z"/>
            <path class="cls-3" d="M43.56,42.57s0,.06,0,.1c.04-.06,.08-.13,.12-.19-.24,.09-.18,.52,.06,.54,.29,.03,.37-.46,.09-.55,.04,.06,.09,.12,.13,.18,0-.03,0-.06,0-.09-.02-.26-.37-.23-.39,.02Z"/>
            <path class="cls-3" d="M44,41.72c0-.36-.49-.42-.49-.05s.49,.42,.49,.05Z"/>
          </g>
        </g>
        <g>
          <g>
            <path class="cls-3" d="M42.89,50.3c0-.44-.59-.51-.59-.06s.59,.51,.59,.06Z"/>
            <path class="cls-3" d="M42.25,49.13c-.03,.15-.06,.3,.03,.43,.11,.15,.29,.12,.39-.02,.08-.11,.06-.24,.03-.36-.03-.12-.1-.21-.21-.22-.1-.01-.22,.06-.24,.18Z"/>
            <path class="cls-3" d="M42.83,48.51c0-.35-.47-.4-.47-.05s.47,.4,.47,.05Z"/>
            <path class="cls-3" d="M42.4,47.42s0,.06,0,.1c.04-.06,.08-.13,.12-.19-.24,.09-.18,.52,.06,.54,.29,.03,.37-.46,.09-.55,.04,.06,.09,.12,.13,.18,0-.03,0-.06,0-.09-.02-.26-.37-.23-.39,.02Z"/>
            <path class="cls-3" d="M42.84,46.58c0-.36-.49-.42-.49-.05s.49,.42,.49,.05Z"/>
          </g>
          <g>
            <path class="cls-3" d="M42.89,45.76c0-.44-.59-.51-.59-.06s.59,.51,.59,.06Z"/>
            <path class="cls-3" d="M42.25,44.6c-.03,.15-.06,.3,.03,.43,.11,.15,.29,.12,.39-.02,.08-.11,.06-.24,.03-.36-.03-.12-.1-.21-.21-.22-.1-.01-.22,.06-.24,.18Z"/>
            <path class="cls-3" d="M42.83,43.97c0-.35-.47-.4-.47-.05s.47,.4,.47,.05Z"/>
            <path class="cls-3" d="M42.4,42.89s0,.06,0,.1c.04-.06,.08-.13,.12-.19-.24,.09-.18,.52,.06,.54,.29,.03,.37-.46,.09-.55,.04,.06,.09,.12,.13,.18,0-.03,0-.06,0-.09-.02-.26-.37-.23-.39,.02Z"/>
            <path class="cls-3" d="M42.84,42.04c0-.36-.49-.42-.49-.05s.49,.42,.49,.05Z"/>
          </g>
        </g>
        <g>
          <g>
            <path class="cls-3" d="M41.89,50.49c0-.44-.59-.51-.59-.06s.59,.51,.59,.06Z"/>
            <path class="cls-3" d="M41.25,49.33c-.03,.15-.06,.3,.03,.43,.11,.15,.29,.12,.39-.02,.08-.11,.06-.24,.03-.36-.03-.12-.1-.21-.21-.22-.1-.01-.22,.06-.24,.18Z"/>
            <path class="cls-3" d="M41.83,48.7c0-.35-.47-.4-.47-.05s.47,.4,.47,.05Z"/>
            <path class="cls-3" d="M41.4,47.62s0,.06,0,.1c.04-.06,.08-.13,.12-.19-.24,.09-.18,.52,.06,.54,.29,.03,.37-.46,.09-.55,.04,.06,.09,.12,.13,.18,0-.03,0-.06,0-.09-.02-.26-.37-.23-.39,.02Z"/>
            <path class="cls-3" d="M41.84,46.77c0-.36-.49-.42-.49-.05s.49,.42,.49,.05Z"/>
          </g>
          <g>
            <path class="cls-3" d="M41.89,45.96c0-.44-.59-.51-.59-.06s.59,.51,.59,.06Z"/>
            <path class="cls-3" d="M41.25,44.79c-.03,.15-.06,.3,.03,.43,.11,.15,.29,.12,.39-.02,.08-.11,.06-.24,.03-.36-.03-.12-.1-.21-.21-.22-.1-.01-.22,.06-.24,.18Z"/>
            <path class="cls-3" d="M41.83,44.17c0-.35-.47-.4-.47-.05s.47,.4,.47,.05Z"/>
            <path class="cls-3" d="M41.4,43.08s0,.06,0,.1c.04-.06,.08-.13,.12-.19-.24,.09-.18,.52,.06,.54,.29,.03,.37-.46,.09-.55,.04,.06,.09,.12,.13,.18,0-.03,0-.06,0-.09-.02-.26-.37-.23-.39,.02Z"/>
            <path class="cls-3" d="M41.84,42.24c0-.36-.49-.42-.49-.05s.49,.42,.49,.05Z"/>
          </g>
        </g>
        <g>
          <g>
            <path class="cls-3" d="M40.8,50.88c0-.44-.59-.51-.59-.06s.59,.51,.59,.06Z"/>
            <path class="cls-3" d="M40.16,49.71c-.03,.15-.06,.3,.03,.43,.11,.15,.29,.12,.39-.02,.08-.11,.06-.24,.03-.36-.03-.12-.1-.21-.21-.22-.1-.01-.22,.06-.24,.18Z"/>
            <path class="cls-3" d="M40.74,49.09c0-.35-.47-.4-.47-.05s.47,.4,.47,.05Z"/>
            <path class="cls-3" d="M40.31,48s0,.06,0,.1c.04-.06,.08-.13,.12-.19-.24,.09-.18,.52,.06,.54,.29,.03,.37-.46,.09-.55,.04,.06,.09,.12,.13,.18,0-.03,0-.06,0-.09-.02-.26-.37-.23-.39,.02Z"/>
            <path class="cls-3" d="M40.75,47.16c0-.36-.49-.42-.49-.05s.49,.42,.49,.05Z"/>
          </g>
          <g>
            <path class="cls-3" d="M40.8,46.34c0-.44-.59-.51-.59-.06s.59,.51,.59,.06Z"/>
            <path class="cls-3" d="M40.16,45.18c-.03,.15-.06,.3,.03,.43,.11,.15,.29,.12,.39-.02,.08-.11,.06-.24,.03-.36-.03-.12-.1-.21-.21-.22-.1-.01-.22,.06-.24,.18Z"/>
            <path class="cls-3" d="M40.74,44.55c0-.35-.47-.4-.47-.05s.47,.4,.47,.05Z"/>
            <path class="cls-3" d="M40.31,43.47s0,.06,0,.1c.04-.06,.08-.13,.12-.19-.24,.09-.18,.52,.06,.54,.29,.03,.37-.46,.09-.55,.04,.06,.09,.12,.13,.18,0-.03,0-.06,0-.09-.02-.26-.37-.23-.39,.02Z"/>
            <path class="cls-3" d="M40.75,42.62c0-.36-.49-.42-.49-.05s.49,.42,.49,.05Z"/>
          </g>
        </g>
        <g>
          <g>
            <path class="cls-3" d="M39.65,51.37c0-.44-.59-.51-.59-.06s.59,.51,.59,.06Z"/>
            <path class="cls-3" d="M39.01,50.2c-.03,.15-.06,.3,.03,.43,.11,.15,.29,.12,.39-.02,.08-.11,.06-.24,.03-.36-.03-.12-.1-.21-.21-.22-.1-.01-.22,.06-.24,.18Z"/>
            <path class="cls-3" d="M39.59,49.58c0-.35-.47-.4-.47-.05s.47,.4,.47,.05Z"/>
            <path class="cls-3" d="M39.16,48.49s0,.06,0,.1c.04-.06,.08-.13,.12-.19-.24,.09-.18,.52,.06,.54,.29,.03,.37-.46,.09-.55,.04,.06,.09,.12,.13,.18,0-.03,0-.06,0-.09-.02-.26-.37-.23-.39,.02Z"/>
            <path class="cls-3" d="M39.6,47.65c0-.36-.49-.42-.49-.05s.49,.42,.49,.05Z"/>
          </g>
          <g>
            <path class="cls-3" d="M39.65,46.83c0-.44-.59-.51-.59-.06s.59,.51,.59,.06Z"/>
            <path class="cls-3" d="M39.01,45.67c-.03,.15-.06,.3,.03,.43,.11,.15,.29,.12,.39-.02,.08-.11,.06-.24,.03-.36-.03-.12-.1-.21-.21-.22-.1-.01-.22,.06-.24,.18Z"/>
            <path class="cls-3" d="M39.59,45.04c0-.35-.47-.4-.47-.05s.47,.4,.47,.05Z"/>
            <path class="cls-3" d="M39.16,43.96s0,.06,0,.1c.04-.06,.08-.13,.12-.19-.24,.09-.18,.52,.06,.54,.29,.03,.37-.46,.09-.55,.04,.06,.09,.12,.13,.18,0-.03,0-.06,0-.09-.02-.26-.37-.23-.39,.02Z"/>
            <path class="cls-3" d="M39.6,43.11c0-.36-.49-.42-.49-.05s.49,.42,.49,.05Z"/>
          </g>
        </g>
        <g>
          <g>
            <path class="cls-3" d="M38.54,51.62c0-.44-.59-.51-.59-.06s.59,.51,.59,.06Z"/>
            <path class="cls-3" d="M37.89,50.46c-.03,.15-.06,.3,.03,.43,.11,.15,.29,.12,.39-.02,.08-.11,.06-.24,.03-.36-.03-.12-.1-.21-.21-.22-.1-.01-.22,.06-.24,.18Z"/>
            <path class="cls-3" d="M38.48,49.84c0-.35-.47-.4-.47-.05s.47,.4,.47,.05Z"/>
            <path class="cls-3" d="M38.05,48.75s0,.06,0,.1c.04-.06,.08-.13,.12-.19-.24,.09-.18,.52,.06,.54,.29,.03,.37-.46,.09-.55,.04,.06,.09,.12,.13,.18,0-.03,0-.06,0-.09-.02-.26-.37-.23-.39,.02Z"/>
            <path class="cls-3" d="M38.49,47.91c0-.36-.49-.42-.49-.05s.49,.42,.49,.05Z"/>
          </g>
          <g>
            <path class="cls-3" d="M38.54,47.09c0-.44-.59-.51-.59-.06s.59,.51,.59,.06Z"/>
            <path class="cls-3" d="M37.89,45.92c-.03,.15-.06,.3,.03,.43,.11,.15,.29,.12,.39-.02,.08-.11,.06-.24,.03-.36-.03-.12-.1-.21-.21-.22-.1-.01-.22,.06-.24,.18Z"/>
            <path class="cls-3" d="M38.48,45.3c0-.35-.47-.4-.47-.05s.47,.4,.47,.05Z"/>
            <path class="cls-3" d="M38.05,44.21s0,.06,0,.1c.04-.06,.08-.13,.12-.19-.24,.09-.18,.52,.06,.54,.29,.03,.37-.46,.09-.55,.04,.06,.09,.12,.13,.18,0-.03,0-.06,0-.09-.02-.26-.37-.23-.39,.02Z"/>
            <path class="cls-3" d="M38.49,43.37c0-.36-.49-.42-.49-.05s.49,.42,.49,.05Z"/>
          </g>
        </g>
      </g>
    </g>
    <g>
      <path class="cls-1" d="M36.46,38.75c-.21-.04-.4-.13-.55-.28-.17-.16-.22-.38-.13-.59,.08-.2,.27-.33,.5-.34,.08,0,.15,0,.23,0,.06,0,.08-.01,.08-.08,0-.12-.02-.23,.01-.35,.05-.21,.17-.34,.37-.4,.2-.06,.39,0,.54,.14,.15,.15,.24,.34,.28,.56,.03,0,.02-.03,.02-.04,.06-.26,.17-.5,.43-.63,.35-.17,.75,.08,.76,.48,0,.08,0,.16,0,.25,0,.06,.02,.07,.07,.07,.12,0,.24-.02,.35,.01,.21,.05,.34,.18,.4,.38,.06,.2,0,.38-.14,.53-.15,.15-.33,.24-.53,.27,0,0-.01,0-.02,0,0,0,0,0,0,.01,.09,.02,.17,.04,.25,.07,.18,.08,.33,.18,.42,.37,.16,.35-.09,.75-.48,.76-.08,0-.16,0-.25,0-.06,0-.07,.01-.07,.07,0,.12,.01,.24-.01,.35-.09,.4-.57,.56-.88,.28-.16-.15-.26-.33-.3-.55,0,0,0-.02,0-.03,0,0,0,0-.01,0,0,.04-.02,.07-.03,.11-.05,.18-.13,.34-.27,.47-.16,.15-.36,.2-.57,.11-.21-.09-.32-.25-.33-.48,0-.09,0-.17,0-.26,0-.05-.01-.06-.06-.06-.12,0-.25,.02-.37-.01-.21-.05-.34-.18-.4-.39-.05-.2,0-.38,.15-.53,.15-.15,.34-.23,.55-.28Zm.97,.55c.23,.14,.47,.15,.7,0,.04-.02,.19-.17,.21-.21,.14-.23,.14-.47,0-.7-.02-.04-.17-.18-.21-.21-.23-.14-.47-.14-.7,0-.04,.02-.19,.17-.21,.21-.13,.23-.13,.46,0,.69,.03,.05,.17,.19,.21,.21Z"/>
      <path class="cls-1" d="M39.61,38.75c.14-.1,.26-.21,.33-.36,.01-.03,.03-.03,.05-.02,.17,.07,.31,.18,.4,.34,.02,.03,.01,.06,0,.09-.09,.15-.22,.26-.39,.32-.02,0-.05,.03-.06,0-.07-.15-.19-.26-.34-.36Z"/>
      <path class="cls-1" d="M35.58,38.37s.03,.01,.04,.02c.07,.14,.17,.24,.3,.33,.04,.03,.03,.04,0,.06-.12,.09-.23,.19-.29,.32-.01,.03-.03,.03-.06,.02-.17-.07-.3-.18-.4-.33-.01-.02-.02-.04,0-.07,.1-.17,.24-.28,.42-.35,0,0,0,0,.01,0Z"/>
      <path class="cls-1" d="M37.78,41.39s-.04-.02-.05-.03c-.15-.09-.25-.22-.32-.38-.01-.04-.01-.05,.02-.07,.13-.06,.23-.16,.31-.27,.03-.04,.04-.06,.08,0,.08,.12,.18,.22,.31,.28,.02,.01,.04,.02,.03,.05-.07,.18-.18,.32-.35,.41,0,0-.02,0-.03,.01Z"/>
      <path class="cls-1" d="M38.16,36.55s-.01,.04-.03,.04c-.14,.06-.24,.17-.32,.29-.03,.04-.04,.03-.07,0-.08-.12-.18-.22-.32-.28-.03-.02-.03-.03-.02-.07,.07-.17,.17-.3,.33-.39,.03-.02,.05-.02,.08,0,.16,.1,.28,.23,.34,.41,0,0,0,0,0,0Z"/>
      <path class="cls-1" d="M37.78,38.28c.26,0,.47,.22,.47,.47,0,.26-.22,.48-.48,.48-.26,0-.48-.23-.47-.48,0-.26,.22-.47,.48-.47Z"/>
    </g>
    <g>
      <path class="cls-1" d="M39.59,30.29c-.48,.49-.92,.73-1.43,.84-.13,.03-.98,.03-1.09,.01-1.42-.28-2.42-1.65-2.05-3.32,.17-.74,.54-1.38,.96-2,.48-.7,1.01-1.37,1.55-2.03,.06-.07,.09-.11,.16-.01,.64,.82,1.31,1.62,1.85,2.52,.41,.67,.71,1.38,.71,2.19,0,.75-.25,1.39-.66,1.8Zm-1.98-5.3c-.55,1.91-.54,3.81-.01,5.71,.54-1.9,.55-3.8,.01-5.71Z"/>
      <path class="cls-1" d="M28.14,35.04c0,.26-.05,.44-.16,.61-.03,.04-.25,.27-.29,.29-.45,.3-1.09,.21-1.43-.34-.15-.24-.23-.51-.28-.79-.06-.32-.1-.64-.13-.96,0-.04,0-.05,.04-.05,.39,.05,.78,.09,1.17,.18,.29,.07,.56,.18,.78,.39,.2,.2,.3,.44,.31,.66Zm-1.94-.89c.36,.65,.87,1.16,1.52,1.53-.36-.65-.87-1.16-1.52-1.53Z"/>
      <path class="cls-1" d="M47.39,34.38c.22-.21,.49-.32,.78-.39,.38-.09,.77-.13,1.17-.18,.04,0,.04,.01,.04,.05-.03,.32-.07,.64-.13,.96-.05,.28-.13,.55-.28,.79-.34,.54-.98,.64-1.43,.34-.03-.02-.26-.25-.29-.29-.11-.16-.16-.35-.16-.61,0-.22,.1-.46,.31-.66Zm.11,1.3c.65-.37,1.16-.87,1.52-1.53-.65,.37-1.16,.88-1.52,1.53Z"/>
    </g>
    <g>
      <g>
        <path d="M39.59,20.44c-.48,.49-.92,.73-1.43,.84-.13,.03-.98,.03-1.09,.01-1.42-.28-2.42-1.65-2.05-3.32,.17-.74,.54-1.38,.96-2,.48-.7,1.01-1.37,1.55-2.03,.06-.07,.09-.11,.16-.01,.64,.82,1.31,1.62,1.85,2.52,.41,.67,.71,1.38,.71,2.19,0,.75-.25,1.39-.66,1.8Zm-1.98-5.3c-.55,1.91-.54,3.81-.01,5.71,.54-1.9,.55-3.8,.01-5.71Z"/>
        <path d="M37.48,21.31c-.2,0-.38,0-.42-.01-.71-.14-1.31-.54-1.7-1.14-.41-.62-.53-1.4-.35-2.19,.18-.79,.58-1.45,.96-2,.51-.74,1.07-1.44,1.55-2.03,.03-.04,.06-.07,.09-.07h0s.05,.02,.08,.06c.11,.14,.22,.28,.33,.42,.53,.67,1.07,1.36,1.52,2.1,.48,.8,.71,1.49,.71,2.19,0,.71-.24,1.37-.66,1.81h0c-.47,.47-.91,.73-1.43,.84-.08,.02-.4,.02-.68,.02Zm.13-7.43s-.05,.03-.08,.07c-.48,.59-1.04,1.29-1.55,2.03-.37,.55-.78,1.21-.96,2-.18,.78-.05,1.56,.35,2.17,.39,.59,.99,.99,1.69,1.13,.1,.02,.95,.02,1.09-.01,.52-.11,.96-.36,1.43-.84,.42-.44,.66-1.09,.66-1.8,0-.7-.23-1.39-.71-2.19-.45-.74-.99-1.43-1.52-2.1-.11-.14-.22-.28-.33-.42-.03-.04-.05-.05-.07-.05h0Zm-.01,7.01v-.03c-.27-.95-.41-1.91-.41-2.86,0-.95,.14-1.91,.41-2.86v-.03s.02,.03,.02,.03c.27,.95,.4,1.91,.4,2.86,0,.95-.14,1.91-.41,2.86v.03Zm0-5.71c-.53,1.87-.53,3.77-.01,5.65,.53-1.88,.54-3.78,.01-5.65Z"/>
      </g>
      <g>
        <path d="M35.01,20.23c0,.26-.05,.44-.16,.61-.03,.04-.25,.27-.29,.29-.45,.3-1.09,.21-1.43-.34-.15-.24-.23-.51-.28-.79-.06-.32-.1-.64-.13-.96,0-.04,0-.05,.04-.05,.39,.05,.78,.09,1.17,.18,.29,.07,.56,.18,.78,.39,.2,.2,.3,.44,.31,.66Zm-1.94-.89c.36,.65,.87,1.16,1.52,1.53-.36-.65-.87-1.16-1.52-1.53Z"/>
        <path d="M34.01,21.31c-.07,0-.14,0-.21-.02-.28-.06-.52-.23-.68-.49-.16-.26-.23-.55-.28-.79-.06-.33-.1-.67-.13-.96,0-.02,0-.04,0-.05,0,0,.02,0,.04,0,.07,0,.13,.02,.2,.02,.32,.04,.65,.08,.97,.16,.34,.08,.59,.21,.78,.4,.19,.19,.3,.43,.31,.66h0c0,.25-.05,.44-.16,.61-.03,.04-.26,.27-.29,.3-.17,.11-.36,.17-.56,.17Zm-1.26-2.3s-.01,0-.01,0c0,0,0,.02,0,.03,.03,.29,.07,.62,.13,.96,.05,.25,.12,.53,.28,.79,.16,.26,.4,.43,.67,.48,.26,.05,.53,0,.75-.15,.03-.02,.26-.25,.29-.29,.11-.17,.16-.35,.16-.6,0-.23-.11-.47-.3-.65-.19-.18-.43-.31-.77-.39-.32-.08-.65-.12-.97-.15-.07,0-.13-.02-.2-.02,0,0-.01,0-.01,0Zm1.86,1.89h-.02c-.65-.38-1.16-.9-1.53-1.55v-.02s.01,.01,.01,.01c.65,.36,1.16,.88,1.53,1.53v.02Zm-1.51-1.53c.35,.63,.85,1.13,1.48,1.49-.36-.63-.85-1.13-1.48-1.49Z"/>
      </g>
      <g>
        <path d="M40.49,19.58c.22-.21,.49-.32,.78-.39,.38-.09,.77-.13,1.17-.18,.04,0,.04,.01,.04,.05-.03,.32-.07,.64-.13,.96-.05,.28-.13,.55-.28,.79-.34,.54-.98,.64-1.43,.34-.03-.02-.26-.25-.29-.29-.11-.16-.16-.35-.16-.61,0-.22,.1-.46,.31-.66Zm.11,1.3c.65-.37,1.16-.87,1.52-1.53-.65,.37-1.16,.88-1.52,1.53Z"/>
        <path d="M41.18,21.31c-.2,0-.39-.06-.56-.17-.03-.02-.26-.25-.29-.3-.11-.17-.16-.36-.16-.61,0-.23,.12-.47,.31-.66,.19-.19,.44-.31,.78-.4,.32-.08,.65-.12,.97-.16,.07,0,.13-.02,.2-.02,.02,0,.03,0,.04,0,.01,0,0,.03,0,.05-.03,.29-.07,.62-.13,.96-.05,.25-.12,.53-.28,.79-.16,.26-.41,.43-.68,.49-.07,.01-.14,.02-.21,.02Zm1.26-2.3s0,0-.01,0c-.07,0-.13,.02-.2,.02-.32,.04-.65,.08-.97,.15-.34,.08-.58,.21-.77,.39h0c-.19,.19-.3,.42-.3,.65,0,.25,.05,.44,.16,.6,.03,.04,.25,.27,.29,.29,.22,.15,.49,.2,.75,.15,.27-.06,.51-.23,.67-.48,.16-.26,.23-.54,.28-.79,.06-.33,.1-.67,.13-.96,0-.02,0-.03,0-.03,0,0,0,0-.01,0Zm-1.86,1.89v-.02c.38-.65,.89-1.17,1.54-1.53h.02s-.01,.01-.01,.01c-.36,.65-.87,1.17-1.53,1.53h-.02Zm1.52-1.51c-.63,.36-1.12,.86-1.48,1.49,.63-.36,1.13-.86,1.48-1.49Z"/>
      </g>
    </g>
  </g>
</svg>